<svg width="96" height="35" viewBox="0 0 96 35" fill="none" xmlns="http://www.w3.org/2000/svg">
<rect width="96" height="35" rx="8" fill="#FBEEE9"/>
<rect x="8" y="11.5" width="12" height="12" rx="6" fill="#DD900D"/>
<path d="M37.56 23L36.496 20.116H32.632L31.568 23H30L33.794 12.962H35.362L39.142 23H37.56ZM35.068 15.986C35.04 15.8833 34.9887 15.7293 34.914 15.524C34.8487 15.3093 34.7833 15.0947 34.718 14.88C34.6527 14.656 34.6013 14.474 34.564 14.334C34.5173 14.5207 34.4613 14.726 34.396 14.95C34.34 15.1647 34.284 15.3653 34.228 15.552C34.172 15.7293 34.1253 15.874 34.088 15.986L33.08 18.8H36.076L35.068 15.986ZM41.5262 14.922C41.5262 15.23 41.5168 15.524 41.4982 15.804C41.4888 16.0747 41.4748 16.2893 41.4562 16.448H41.5262C41.7408 16.1307 42.0302 15.8647 42.3942 15.65C42.7582 15.4353 43.2295 15.328 43.8082 15.328C44.7135 15.328 45.4415 15.6547 45.9922 16.308C46.5522 16.9613 46.8322 17.932 46.8322 19.22C46.8322 20.088 46.7062 20.8113 46.4542 21.39C46.2022 21.9687 45.8475 22.4073 45.3902 22.706C44.9328 22.9953 44.4008 23.14 43.7942 23.14C43.2062 23.14 42.7348 23.0373 42.3802 22.832C42.0255 22.6173 41.7408 22.3653 41.5262 22.076H41.4142L41.1342 23H40.0422V12.36H41.5262V14.922ZM43.4582 16.532C42.9728 16.532 42.5902 16.6253 42.3102 16.812C42.0302 16.9987 41.8295 17.2833 41.7082 17.666C41.5868 18.0487 41.5262 18.534 41.5262 19.122V19.234C41.5262 20.102 41.6662 20.7693 41.9462 21.236C42.2262 21.6933 42.7395 21.922 43.4862 21.922C44.0835 21.922 44.5362 21.6887 44.8442 21.222C45.1522 20.7553 45.3062 20.0833 45.3062 19.206C45.3062 18.3193 45.1522 17.652 44.8442 17.204C44.5362 16.756 44.0742 16.532 43.4582 16.532ZM55.0938 19.22C55.0938 19.8453 55.0098 20.4007 54.8418 20.886C54.6738 21.3713 54.4358 21.782 54.1278 22.118C53.8198 22.454 53.4465 22.7107 53.0078 22.888C52.5691 23.056 52.0745 23.14 51.5238 23.14C51.0198 23.14 50.5531 23.056 50.1238 22.888C49.6945 22.7107 49.3211 22.454 49.0038 22.118C48.6958 21.782 48.4531 21.3713 48.2758 20.886C48.0985 20.4007 48.0098 19.8407 48.0098 19.206C48.0098 18.3753 48.1498 17.6707 48.4298 17.092C48.7191 16.5133 49.1298 16.0747 49.6618 15.776C50.2031 15.468 50.8378 15.314 51.5658 15.314C52.2565 15.314 52.8631 15.468 53.3858 15.776C53.9178 16.0747 54.3331 16.5133 54.6318 17.092C54.9398 17.6707 55.0938 18.38 55.0938 19.22ZM49.5358 19.22C49.5358 19.78 49.6058 20.2653 49.7458 20.676C49.8858 21.0773 50.1051 21.3853 50.4038 21.6C50.7025 21.8147 51.0851 21.922 51.5518 21.922C52.0185 21.922 52.4011 21.8147 52.6998 21.6C52.9985 21.3853 53.2178 21.0773 53.3578 20.676C53.4978 20.2653 53.5678 19.78 53.5678 19.22C53.5678 18.6413 53.4931 18.156 53.3438 17.764C53.2038 17.372 52.9845 17.0733 52.6858 16.868C52.3965 16.6533 52.0138 16.546 51.5378 16.546C50.8378 16.546 50.3291 16.7793 50.0118 17.246C49.6945 17.7127 49.5358 18.3707 49.5358 19.22ZM63.191 15.454V23H62.001L61.791 22.006H61.721C61.5624 22.2673 61.357 22.482 61.105 22.65C60.853 22.818 60.5777 22.9393 60.279 23.014C59.9804 23.098 59.6724 23.14 59.355 23.14C58.767 23.14 58.2677 23.0467 57.857 22.86C57.4557 22.664 57.1477 22.3653 56.933 21.964C56.7277 21.5533 56.625 21.0307 56.625 20.396V15.454H58.123V20.172C58.123 20.76 58.2444 21.1987 58.487 21.488C58.739 21.7773 59.1264 21.922 59.649 21.922C60.1717 21.922 60.5824 21.8193 60.881 21.614C61.1797 21.4087 61.3897 21.11 61.511 20.718C61.6417 20.3167 61.707 19.836 61.707 19.276V15.454H63.191ZM67.9494 21.936C68.1454 21.936 68.3461 21.9173 68.5514 21.88C68.7567 21.8427 68.9341 21.8007 69.0834 21.754V22.874C68.9247 22.9487 68.7101 23.0093 68.4394 23.056C68.1687 23.112 67.8981 23.14 67.6274 23.14C67.2167 23.14 66.8387 23.07 66.4934 22.93C66.1574 22.79 65.8867 22.5473 65.6814 22.202C65.4761 21.8567 65.3734 21.376 65.3734 20.76V16.588H64.3234V15.916L65.4294 15.356L65.9474 13.76H66.8574V15.454H69.0134V16.588H66.8574V20.732C66.8574 21.1427 66.9554 21.446 67.1514 21.642C67.3567 21.838 67.6227 21.936 67.9494 21.936ZM80.1655 15.454V23H78.9755L78.7655 22.006H78.6955C78.5368 22.2673 78.3315 22.482 78.0795 22.65C77.8275 22.818 77.5522 22.9393 77.2535 23.014C76.9548 23.098 76.6468 23.14 76.3295 23.14C75.7415 23.14 75.2422 23.0467 74.8315 22.86C74.4302 22.664 74.1222 22.3653 73.9075 21.964C73.7022 21.5533 73.5995 21.0307 73.5995 20.396V15.454H75.0975V20.172C75.0975 20.76 75.2188 21.1987 75.4615 21.488C75.7135 21.7773 76.1008 21.922 76.6235 21.922C77.1462 21.922 77.5568 21.8193 77.8555 21.614C78.1542 21.4087 78.3642 21.11 78.4855 20.718C78.6162 20.3167 78.6815 19.836 78.6815 19.276V15.454H80.1655ZM87.2199 20.872C87.2199 21.3667 87.0985 21.782 86.8559 22.118C86.6132 22.454 86.2632 22.7107 85.8059 22.888C85.3485 23.056 84.7979 23.14 84.1539 23.14C83.6219 23.14 83.1645 23.098 82.7819 23.014C82.4085 22.9393 82.0632 22.8273 81.7459 22.678V21.376C82.0819 21.5347 82.4692 21.6793 82.9079 21.81C83.3465 21.9313 83.7759 21.992 84.1959 21.992C84.7559 21.992 85.1572 21.9033 85.3999 21.726C85.6519 21.5487 85.7779 21.3107 85.7779 21.012C85.7779 20.844 85.7312 20.6947 85.6379 20.564C85.5445 20.424 85.3672 20.284 85.1059 20.144C84.8539 19.9947 84.4805 19.8267 83.9859 19.64C83.5099 19.444 83.1039 19.2527 82.7679 19.066C82.4319 18.87 82.1752 18.6413 81.9979 18.38C81.8205 18.1093 81.7319 17.764 81.7319 17.344C81.7319 16.6907 81.9932 16.1913 82.5159 15.846C83.0479 15.4913 83.7479 15.314 84.6159 15.314C85.0732 15.314 85.5025 15.3607 85.9039 15.454C86.3145 15.538 86.7112 15.6687 87.0939 15.846L86.6039 16.98C86.3892 16.8773 86.1652 16.7933 85.9319 16.728C85.7079 16.6533 85.4792 16.5927 85.2459 16.546C85.0219 16.4993 84.7885 16.476 84.5459 16.476C84.0979 16.476 83.7572 16.546 83.5239 16.686C83.2905 16.826 83.1739 17.022 83.1739 17.274C83.1739 17.4513 83.2252 17.6053 83.3279 17.736C83.4399 17.8667 83.6312 17.9973 83.9019 18.128C84.1725 18.2587 84.5412 18.4173 85.0079 18.604C85.4745 18.7813 85.8712 18.9633 86.1979 19.15C86.5339 19.3367 86.7859 19.5653 86.9539 19.836C87.1312 20.1067 87.2199 20.452 87.2199 20.872Z" fill="#DD900D"/>
</svg>
