<svg width="22" height="20" viewBox="0 0 22 20" fill="none" xmlns="http://www.w3.org/2000/svg">
<mask id="mask0_12983_227103" style="mask-type:alpha" maskUnits="userSpaceOnUse" x="5" y="2" width="17" height="18">
<path d="M20.4225 9.60455C21.2592 10.0649 21.2592 11.2536 20.4225 11.714L7.04242 19.0768C6.2276 19.5251 5.22501 18.9433 5.22501 18.022L5.22501 3.29652C5.22501 2.37527 6.2276 1.79342 7.04242 2.2418L20.4225 9.60455Z" fill="#C4C4C4"/>
</mask>
<g mask="url(#mask0_12983_227103)">
<path d="M5.64353 18.9324L13.9896 10.5394L5.78098 2.28467C5.4535 2.4946 5.22501 2.85705 5.22501 3.29686V18.0224C5.22501 18.3976 5.39132 18.7165 5.64353 18.9324Z" fill="url(#paint0_linear_12983_227103)"/>
<path d="M20.4226 9.6044C21.2592 10.0648 21.2592 11.2535 20.4226 11.7139L17.047 13.5713L13.9897 10.5389L16.8911 7.66113L20.4226 9.6044Z" fill="url(#paint1_linear_12983_227103)"/>
<path d="M17.047 13.5715L13.9896 10.5391L5.64346 18.9321C6.01049 19.2464 6.55942 19.3425 7.04238 19.0768L17.047 13.5715Z" fill="url(#paint2_linear_12983_227103)"/>
<path d="M5.78098 2.28432L13.9896 10.5391L16.8911 7.66128L7.04239 2.2418C6.61657 2.00747 6.13947 2.05452 5.78098 2.28432Z" fill="url(#paint3_linear_12983_227103)"/>
</g>
<defs>
<linearGradient id="paint0_linear_12983_227103" x1="10.9464" y1="7.27953" x2="5.27186" y2="13.0007" gradientUnits="userSpaceOnUse">
<stop stop-color="#00C3FF"/>
<stop offset="1" stop-color="#1BE2FA"/>
</linearGradient>
<linearGradient id="paint1_linear_12983_227103" x1="13.9897" y1="10.5389" x2="21.537" y2="10.5389" gradientUnits="userSpaceOnUse">
<stop stop-color="#FFCE00"/>
<stop offset="1" stop-color="#FFEA00"/>
</linearGradient>
<linearGradient id="paint2_linear_12983_227103" x1="5.46844" y1="19.9566" x2="15.5079" y2="11.9078" gradientUnits="userSpaceOnUse">
<stop stop-color="#DE2453"/>
<stop offset="1" stop-color="#FE3944"/>
</linearGradient>
<linearGradient id="paint3_linear_12983_227103" x1="5.95536" y1="1.36299" x2="15.5096" y2="9.16676" gradientUnits="userSpaceOnUse">
<stop stop-color="#11D574"/>
<stop offset="1" stop-color="#01F176"/>
</linearGradient>
</defs>
</svg>
