<svg width="107" height="35" viewBox="0 0 107 35" fill="none" xmlns="http://www.w3.org/2000/svg">
<rect width="107" height="35" rx="8" fill="#FBEAE9"/>
<rect x="8" y="11.5" width="12" height="12" rx="6" fill="#BA110B"/>
<path d="M35.6 14.166C35.1053 14.166 34.662 14.2547 34.27 14.432C33.878 14.6 33.542 14.852 33.262 15.188C32.9913 15.524 32.7813 15.93 32.632 16.406C32.492 16.882 32.422 17.4187 32.422 18.016C32.422 18.8 32.5387 19.4813 32.772 20.06C33.0053 20.6293 33.3553 21.068 33.822 21.376C34.2887 21.684 34.8767 21.838 35.586 21.838C36.0153 21.838 36.426 21.8007 36.818 21.726C37.2193 21.642 37.6253 21.5347 38.036 21.404V22.706C37.644 22.8553 37.2427 22.9627 36.832 23.028C36.4213 23.1027 35.9453 23.14 35.404 23.14C34.3867 23.14 33.5373 22.93 32.856 22.51C32.184 22.09 31.68 21.4927 31.344 20.718C31.008 19.9433 30.84 19.038 30.84 18.002C30.84 17.246 30.9427 16.5553 31.148 15.93C31.3627 15.2953 31.6707 14.7493 32.072 14.292C32.4733 13.8347 32.968 13.4847 33.556 13.242C34.1533 12.99 34.8393 12.864 35.614 12.864C36.118 12.864 36.6127 12.92 37.098 13.032C37.5833 13.1347 38.022 13.284 38.414 13.48L37.854 14.74C37.5273 14.5907 37.1727 14.46 36.79 14.348C36.4167 14.2267 36.02 14.166 35.6 14.166ZM46.3914 19.22C46.3914 19.8453 46.3074 20.4007 46.1394 20.886C45.9714 21.3713 45.7334 21.782 45.4254 22.118C45.1174 22.454 44.744 22.7107 44.3054 22.888C43.8667 23.056 43.372 23.14 42.8214 23.14C42.3174 23.14 41.8507 23.056 41.4214 22.888C40.992 22.7107 40.6187 22.454 40.3014 22.118C39.9934 21.782 39.7507 21.3713 39.5734 20.886C39.396 20.4007 39.3074 19.8407 39.3074 19.206C39.3074 18.3753 39.4474 17.6707 39.7274 17.092C40.0167 16.5133 40.4274 16.0747 40.9594 15.776C41.5007 15.468 42.1354 15.314 42.8634 15.314C43.554 15.314 44.1607 15.468 44.6834 15.776C45.2154 16.0747 45.6307 16.5133 45.9294 17.092C46.2374 17.6707 46.3914 18.38 46.3914 19.22ZM40.8334 19.22C40.8334 19.78 40.9034 20.2653 41.0434 20.676C41.1834 21.0773 41.4027 21.3853 41.7014 21.6C42 21.8147 42.3827 21.922 42.8494 21.922C43.316 21.922 43.6987 21.8147 43.9974 21.6C44.296 21.3853 44.5154 21.0773 44.6554 20.676C44.7954 20.2653 44.8654 19.78 44.8654 19.22C44.8654 18.6413 44.7907 18.156 44.6414 17.764C44.5014 17.372 44.282 17.0733 43.9834 16.868C43.694 16.6533 43.3114 16.546 42.8354 16.546C42.1354 16.546 41.6267 16.7793 41.3094 17.246C40.992 17.7127 40.8334 18.3707 40.8334 19.22ZM51.8146 15.314C52.692 15.314 53.364 15.5333 53.8306 15.972C54.2973 16.4107 54.5306 17.1153 54.5306 18.086V23H53.0606V18.296C53.0606 17.708 52.9346 17.2693 52.6826 16.98C52.44 16.6813 52.048 16.532 51.5066 16.532C50.7413 16.532 50.2093 16.7607 49.9106 17.218C49.6213 17.6753 49.4766 18.3333 49.4766 19.192V23H47.9926V15.454H49.1686L49.3786 16.462H49.4626C49.6306 16.2007 49.836 15.986 50.0786 15.818C50.3213 15.65 50.592 15.524 50.8906 15.44C51.1893 15.356 51.4973 15.314 51.8146 15.314ZM59.247 21.936C59.443 21.936 59.6437 21.9173 59.849 21.88C60.0543 21.8427 60.2317 21.8007 60.381 21.754V22.874C60.2223 22.9487 60.0077 23.0093 59.737 23.056C59.4663 23.112 59.1957 23.14 58.925 23.14C58.5143 23.14 58.1363 23.07 57.791 22.93C57.455 22.79 57.1843 22.5473 56.979 22.202C56.7737 21.8567 56.671 21.376 56.671 20.76V16.588H55.621V15.916L56.727 15.356L57.245 13.76H58.155V15.454H60.311V16.588H58.155V20.732C58.155 21.1427 58.253 21.446 58.449 21.642C58.6543 21.838 58.9203 21.936 59.247 21.936ZM64.5364 15.314C65.4884 15.314 66.1977 15.524 66.6644 15.944C67.131 16.3547 67.3644 17.0033 67.3644 17.89V23H66.3144L66.0204 21.95H65.9644C65.7497 22.2207 65.5257 22.4447 65.2924 22.622C65.0684 22.7993 64.807 22.93 64.5084 23.014C64.219 23.098 63.8644 23.14 63.4444 23.14C62.9964 23.14 62.5904 23.0607 62.2264 22.902C61.8717 22.734 61.5917 22.482 61.3864 22.146C61.181 21.8007 61.0784 21.3713 61.0784 20.858C61.0784 20.0927 61.3677 19.5093 61.9464 19.108C62.5344 18.7067 63.4257 18.4873 64.6204 18.45L65.9084 18.408V17.988C65.9084 17.428 65.7824 17.036 65.5304 16.812C65.2784 16.588 64.9237 16.476 64.4664 16.476C64.0744 16.476 63.701 16.532 63.3464 16.644C62.9917 16.756 62.6557 16.8913 62.3384 17.05L61.8624 15.972C62.217 15.7853 62.623 15.6313 63.0804 15.51C63.547 15.3793 64.0324 15.314 64.5364 15.314ZM64.8864 19.402C64.0277 19.4393 63.4304 19.584 63.0944 19.836C62.7677 20.0787 62.6044 20.424 62.6044 20.872C62.6044 21.264 62.721 21.5487 62.9544 21.726C63.197 21.9033 63.5004 21.992 63.8644 21.992C64.4524 21.992 64.9377 21.8287 65.3204 21.502C65.703 21.1753 65.8944 20.6853 65.8944 20.032V19.374L64.8864 19.402ZM72.4074 23.14C71.7168 23.14 71.1101 23.0047 70.5874 22.734C70.0648 22.4633 69.6588 22.0433 69.3694 21.474C69.0801 20.8953 68.9354 20.1627 68.9354 19.276C68.9354 18.3427 69.0894 17.5867 69.3974 17.008C69.7148 16.4293 70.1394 16.0047 70.6714 15.734C71.2128 15.454 71.8288 15.314 72.5194 15.314C72.9394 15.314 73.3314 15.3607 73.6954 15.454C74.0688 15.538 74.3768 15.636 74.6194 15.748L74.1714 16.952C73.9101 16.8493 73.6301 16.7607 73.3314 16.686C73.0421 16.6113 72.7668 16.574 72.5054 16.574C72.0388 16.574 71.6514 16.6767 71.3434 16.882C71.0448 17.078 70.8208 17.3767 70.6714 17.778C70.5314 18.17 70.4614 18.6647 70.4614 19.262C70.4614 19.8313 70.5361 20.312 70.6854 20.704C70.8348 21.096 71.0541 21.3947 71.3434 21.6C71.6421 21.796 72.0108 21.894 72.4494 21.894C72.8694 21.894 73.2381 21.8473 73.5554 21.754C73.8728 21.6607 74.1714 21.5393 74.4514 21.39V22.678C74.1808 22.8367 73.8868 22.9533 73.5694 23.028C73.2521 23.1027 72.8648 23.14 72.4074 23.14ZM78.6687 21.936C78.8647 21.936 79.0654 21.9173 79.2707 21.88C79.476 21.8427 79.6534 21.8007 79.8027 21.754V22.874C79.644 22.9487 79.4294 23.0093 79.1587 23.056C78.888 23.112 78.6174 23.14 78.3467 23.14C77.936 23.14 77.558 23.07 77.2127 22.93C76.8767 22.79 76.606 22.5473 76.4007 22.202C76.1954 21.8567 76.0927 21.376 76.0927 20.76V16.588H75.0427V15.916L76.1487 15.356L76.6667 13.76H77.5767V15.454H79.7327V16.588H77.5767V20.732C77.5767 21.1427 77.6747 21.446 77.8707 21.642C78.076 21.838 78.342 21.936 78.6687 21.936ZM90.8848 15.454V23H89.6948L89.4848 22.006H89.4148C89.2561 22.2673 89.0508 22.482 88.7988 22.65C88.5468 22.818 88.2715 22.9393 87.9728 23.014C87.6741 23.098 87.3661 23.14 87.0488 23.14C86.4608 23.14 85.9615 23.0467 85.5508 22.86C85.1495 22.664 84.8415 22.3653 84.6268 21.964C84.4215 21.5533 84.3188 21.0307 84.3188 20.396V15.454H85.8168V20.172C85.8168 20.76 85.9381 21.1987 86.1808 21.488C86.4328 21.7773 86.8201 21.922 87.3428 21.922C87.8655 21.922 88.2761 21.8193 88.5748 21.614C88.8735 21.4087 89.0835 21.11 89.2048 20.718C89.3355 20.3167 89.4008 19.836 89.4008 19.276V15.454H90.8848ZM97.9392 20.872C97.9392 21.3667 97.8178 21.782 97.5752 22.118C97.3325 22.454 96.9825 22.7107 96.5252 22.888C96.0678 23.056 95.5172 23.14 94.8732 23.14C94.3412 23.14 93.8838 23.098 93.5012 23.014C93.1278 22.9393 92.7825 22.8273 92.4652 22.678V21.376C92.8012 21.5347 93.1885 21.6793 93.6272 21.81C94.0658 21.9313 94.4952 21.992 94.9152 21.992C95.4752 21.992 95.8765 21.9033 96.1192 21.726C96.3712 21.5487 96.4972 21.3107 96.4972 21.012C96.4972 20.844 96.4505 20.6947 96.3572 20.564C96.2638 20.424 96.0865 20.284 95.8252 20.144C95.5732 19.9947 95.1998 19.8267 94.7052 19.64C94.2292 19.444 93.8232 19.2527 93.4872 19.066C93.1512 18.87 92.8945 18.6413 92.7172 18.38C92.5398 18.1093 92.4512 17.764 92.4512 17.344C92.4512 16.6907 92.7125 16.1913 93.2352 15.846C93.7672 15.4913 94.4672 15.314 95.3352 15.314C95.7925 15.314 96.2218 15.3607 96.6232 15.454C97.0338 15.538 97.4305 15.6687 97.8132 15.846L97.3232 16.98C97.1085 16.8773 96.8845 16.7933 96.6512 16.728C96.4272 16.6533 96.1985 16.5927 95.9652 16.546C95.7412 16.4993 95.5078 16.476 95.2652 16.476C94.8172 16.476 94.4765 16.546 94.2432 16.686C94.0098 16.826 93.8932 17.022 93.8932 17.274C93.8932 17.4513 93.9445 17.6053 94.0472 17.736C94.1592 17.8667 94.3505 17.9973 94.6212 18.128C94.8918 18.2587 95.2605 18.4173 95.7272 18.604C96.1938 18.7813 96.5905 18.9633 96.9172 19.15C97.2532 19.3367 97.5052 19.5653 97.6732 19.836C97.8505 20.1067 97.9392 20.452 97.9392 20.872Z" fill="#BA110B"/>
</svg>
