<svg width="54" height="54" viewBox="0 0 54 54" fill="none" xmlns="http://www.w3.org/2000/svg">
        <rect width="54" height="54" rx="8" fill="#EBF0EC"/>
        <path d="M27 39.5V19.5C27 17.143 27 15.9645 26.2677 15.2322C25.5355 14.5 24.357 14.5 22 14.5H19.5C17.143 14.5 15.9645 14.5 15.2322 15.2322C14.5 15.9645 14.5 17.143 14.5 19.5V34.5C14.5 36.857 14.5 38.0355 15.2322 38.7677C15.9645 39.5 17.143 39.5 19.5 39.5H27Z" fill="#5B8469" stroke="#326543"/>
        <path d="M27 39.5H34.5C36.857 39.5 38.0355 39.5 38.7677 38.7677C39.5 38.0355 39.5 36.857 39.5 34.5V27C39.5 24.643 39.5 23.4645 38.7677 22.7322C38.0355 22 36.857 22 34.5 22H27" fill="#5B8469"/>
        <path d="M27 39.5H34.5C36.857 39.5 38.0355 39.5 38.7677 38.7677C39.5 38.0355 39.5 36.857 39.5 34.5V27C39.5 24.643 39.5 23.4645 38.7677 22.7322C38.0355 22 36.857 22 34.5 22H27" stroke="#326543"/>
        <path d="M35.125 32H31.375M35.125 27H31.375" stroke="white" stroke-width="1.5" stroke-linecap="round"/>
        <path d="M22.625 29.5H18.875M22.625 24.5H18.875M22.625 19.5H18.875" stroke="white" stroke-width="1.5" stroke-linecap="round"/>
        </svg>