<svg width="34" height="34" viewBox="0 0 34 34" fill="none" xmlns="http://www.w3.org/2000/svg">
<mask id="mask0_103_66" style="mask-type:alpha" maskUnits="userSpaceOnUse" x="0" y="0" width="34" height="34">
<rect width="34" height="34" fill="#D9D9D9"/>
</mask>
<g mask="url(#mask0_103_66)">
<path d="M19.8334 14.025V11.6167C20.6126 11.2861 21.4095 11.0382 22.224 10.8729C23.0386 10.7077 23.8945 10.625 24.7917 10.625C25.4056 10.625 26.0077 10.6722 26.598 10.7667C27.1883 10.8611 27.7667 10.9792 28.3334 11.1209V13.3875C27.7667 13.175 27.1942 13.0156 26.6157 12.9094C26.0372 12.8031 25.4292 12.75 24.7917 12.75C23.8945 12.75 23.0327 12.8622 22.2063 13.0865C21.3799 13.3108 20.589 13.6236 19.8334 14.025ZM19.8334 21.8167V19.4084C20.6126 19.0778 21.4095 18.8299 22.224 18.6646C23.0386 18.4993 23.8945 18.4167 24.7917 18.4167C25.4056 18.4167 26.0077 18.4639 26.598 18.5584C27.1883 18.6528 27.7667 18.7709 28.3334 18.9125V21.1792C27.7667 20.9667 27.1942 20.8073 26.6157 20.7011C26.0372 20.5948 25.4292 20.5417 24.7917 20.5417C23.8945 20.5417 23.0327 20.6479 22.2063 20.8604C21.3799 21.0729 20.589 21.3917 19.8334 21.8167ZM19.8334 17.9209V15.5125C20.6126 15.182 21.4095 14.934 22.224 14.7688C23.0386 14.6035 23.8945 14.5209 24.7917 14.5209C25.4056 14.5209 26.0077 14.5681 26.598 14.6625C27.1883 14.757 27.7667 14.875 28.3334 15.0167V17.2834C27.7667 17.0709 27.1942 16.9115 26.6157 16.8052C26.0372 16.699 25.4292 16.6459 24.7917 16.6459C23.8945 16.6459 23.0327 16.758 22.2063 16.9823C21.3799 17.2066 20.589 17.5195 19.8334 17.9209ZM9.20841 22.6667C10.3181 22.6667 11.3983 22.7906 12.449 23.0386C13.4997 23.2865 14.5445 23.6584 15.5834 24.1542V10.2C14.6154 9.63335 13.5883 9.20835 12.5022 8.92502C11.4161 8.64169 10.3181 8.50002 9.20841 8.50002C8.35841 8.50002 7.51432 8.58266 6.67612 8.74794C5.83793 8.91321 5.02925 9.16113 4.25008 9.49169V23.5167C5.07647 23.2334 5.89696 23.0209 6.71154 22.8792C7.52612 22.7375 8.35841 22.6667 9.20841 22.6667ZM18.4167 24.1542C19.4556 23.6584 20.5004 23.2865 21.5511 23.0386C22.6018 22.7906 23.682 22.6667 24.7917 22.6667C25.6417 22.6667 26.474 22.7375 27.2886 22.8792C28.1032 23.0209 28.9237 23.2334 29.7501 23.5167V9.49169C28.9709 9.16113 28.1622 8.91321 27.324 8.74794C26.4858 8.58266 25.6417 8.50002 24.7917 8.50002C23.682 8.50002 22.5841 8.64169 21.498 8.92502C20.4119 9.20835 19.3848 9.63335 18.4167 10.2V24.1542ZM17.0001 28.3334C15.8667 27.4361 14.639 26.7396 13.3167 26.2438C11.9945 25.7479 10.6251 25.5 9.20841 25.5C8.21675 25.5 7.24279 25.6299 6.28654 25.8896C5.33029 26.1493 4.41536 26.5153 3.54175 26.9875C3.04591 27.2472 2.56779 27.2354 2.10737 26.9521C1.64696 26.6688 1.41675 26.2556 1.41675 25.7125V8.64169C1.41675 8.38196 1.48168 8.13405 1.61154 7.89794C1.7414 7.66183 1.93619 7.48474 2.19591 7.36669C3.28203 6.80002 4.41536 6.37502 5.59591 6.09169C6.77647 5.80835 7.98064 5.66669 9.20841 5.66669C10.5779 5.66669 11.9178 5.84377 13.2282 6.19794C14.5386 6.5521 15.7959 7.08335 17.0001 7.79169C18.2042 7.08335 19.4615 6.5521 20.772 6.19794C22.0824 5.84377 23.4223 5.66669 24.7917 5.66669C26.0195 5.66669 27.2237 5.80835 28.4042 6.09169C29.5848 6.37502 30.7181 6.80002 31.8042 7.36669C32.064 7.48474 32.2588 7.66183 32.3886 7.89794C32.5185 8.13405 32.5834 8.38196 32.5834 8.64169V25.7125C32.5834 26.2556 32.3532 26.6688 31.8928 26.9521C31.4324 27.2354 30.9542 27.2472 30.4584 26.9875C29.5848 26.5153 28.6699 26.1493 27.7136 25.8896C26.7574 25.6299 25.7834 25.5 24.7917 25.5C23.3751 25.5 22.0056 25.7479 20.6834 26.2438C19.3612 26.7396 18.1334 27.4361 17.0001 28.3334Z" fill="#470A34"/>
</g>
</svg>
