<svg width="20" height="20" viewBox="0 0 20 20" fill="none" xmlns="http://www.w3.org/2000/svg">
<circle cx="10.6594" cy="10.6595" r="9.23125" fill="url(#paint0_linear_12983_227106)"/>
<path d="M12.2727 5.81572C12.4723 5.46746 12.353 5.02265 12.0063 4.82221C11.6597 4.62176 11.2169 4.74159 11.0174 5.08985L10.6694 5.69729L10.3214 5.08985C10.1219 4.74159 9.67918 4.62176 9.33254 4.82221C8.98589 5.02265 8.86661 5.46746 9.06613 5.81572L9.83386 7.15584L7.40553 11.3946H5.4492C5.04924 11.3946 4.72501 11.7203 4.72501 12.1222C4.72501 12.524 5.04924 12.8497 5.4492 12.8497H12.2633C12.323 12.692 12.3859 12.4214 12.319 12.1727C12.2184 11.7988 11.8463 11.3946 11.2226 11.3946H9.07668L12.2727 5.81572Z" fill="white"/>
<path d="M7.78214 13.6543C7.65858 13.5164 7.38174 13.2961 7.13899 13.2236C6.76885 13.1131 6.48826 13.1825 6.34669 13.2429L5.80725 14.1845C5.60774 14.5327 5.72701 14.9775 6.07366 15.178C6.4203 15.3784 6.86305 15.2586 7.06257 14.9103L7.78214 13.6543Z" fill="white"/>
<path d="M14.767 12.8497H15.8696C16.2695 12.8497 16.5938 12.524 16.5938 12.1222C16.5938 11.7203 16.2695 11.3946 15.8696 11.3946H13.9334L11.7523 7.5875C11.5903 7.74218 11.2796 8.13735 11.2327 8.58538C11.1723 9.16137 11.2629 9.64642 11.5344 10.1214C12.4475 11.7182 13.3619 13.3143 14.2763 14.9103C14.4758 15.2586 14.9186 15.3784 15.2652 15.178C15.6119 14.9775 15.7311 14.5327 15.5316 14.1845L14.767 12.8497Z" fill="white"/>
<defs>
<linearGradient id="paint0_linear_12983_227106" x1="10.6594" y1="1.42822" x2="10.6594" y2="19.8907" gradientUnits="userSpaceOnUse">
<stop stop-color="#2AC9FA"/>
<stop offset="1" stop-color="#1F65EB"/>
</linearGradient>
</defs>
</svg>
