              <svg width="14" height="14" viewBox="0 0 14 14" fill="none" xmlns="http://www.w3.org/2000/svg">
<path d="M7.94366 12.464C7.69072 12.7009 7.35257 12.8333 7.00064 12.8333C6.64872 12.8333 6.31062 12.7009 6.05762 12.464C3.74093 10.2818 0.636277 7.84398 2.15032 4.30476C2.96895 2.39114 4.93403 1.16663 7.00064 1.16663C9.06727 1.16663 11.0323 2.39114 11.851 4.30476C13.3631 7.83955 10.2661 10.2893 7.94366 12.464Z" fill="#5B8469" stroke="#5B8469"/>
<path d="M9.04167 6.41667C9.04167 7.54425 8.12759 8.45833 7 8.45833C5.87242 8.45833 4.95834 7.54425 4.95834 6.41667C4.95834 5.28908 5.87242 4.375 7 4.375C8.12759 4.375 9.04167 5.28908 9.04167 6.41667Z" fill="white" stroke="#5B8469"/>
</svg>