  <svg width="132" height="49" viewBox="0 0 132 49" fill="none" xmlns="http://www.w3.org/2000/svg">
          <path d="M125.552 21.3366C125.501 21.4852 125.217 22.3086 124.7 23.8069C124.183 25.3055 123.85 26.3307 123.701 26.8826L121.69 21.3366H119.742L122.818 28.8451C122.651 29.3228 122.558 29.5849 122.539 29.6313C122.372 30.0581 122.161 30.355 121.906 30.522C121.651 30.689 121.312 30.7725 120.89 30.7725C120.561 30.7725 120.289 30.7611 120.076 30.7378L120.166 32.1504C120.481 32.1863 120.796 32.2049 121.113 32.206C121.901 32.206 122.546 32.0217 123.047 31.6528C123.548 31.284 123.963 30.6705 124.293 29.8123C124.311 29.7658 125.381 26.9407 127.501 21.3366H125.552ZM116.836 22.5057L116.599 21.3366H115.068V28.9842H116.892V24.8368C116.892 24.2013 117.057 23.7051 117.389 23.3477C117.721 22.9905 118.223 22.8119 118.896 22.8119C119.095 22.8119 119.288 22.8258 119.473 22.8536L119.501 21.3297C119.376 21.3112 119.213 21.3019 119.014 21.3019C118.063 21.3019 117.337 21.7032 116.836 22.5057ZM113.026 27.6968C112.576 27.6968 112.267 27.574 112.1 27.3281C111.933 27.0822 111.85 26.6695 111.85 26.0894V22.443H113.75V21.3366H111.85L111.612 19.256L110.499 19.263L110.152 21.3366L108.844 21.455L108.774 22.443H110.027V26.0546C110.027 26.5835 110.067 27.0278 110.148 27.3872C110.23 27.7467 110.368 28.0586 110.562 28.3232C110.757 28.5876 111.027 28.7814 111.373 28.9042C111.719 29.027 112.151 29.0885 112.671 29.0885C112.801 29.0885 112.94 29.0817 113.088 29.0677C113.211 29.0571 113.333 29.042 113.454 29.0226C113.549 29.0062 113.649 28.9877 113.753 28.9667C113.857 28.9459 113.914 28.9355 113.924 28.9355L113.875 27.6272C113.573 27.6737 113.29 27.6968 113.026 27.6968ZM105.298 21.1487C104.347 21.1487 103.482 21.5339 102.703 22.3038L102.501 21.3366H101.032V28.9842H102.856V25.2614C102.856 24.5097 102.9 23.9531 102.988 23.5913C103.136 23.2851 103.374 23.0311 103.701 22.8292C104.028 22.6275 104.389 22.5265 104.783 22.5265C105.289 22.5265 105.639 22.6796 105.834 22.9859C106.029 23.292 106.129 23.7537 106.133 24.3706V28.9842H107.963V24.1479C107.963 23.1738 107.742 22.4304 107.299 21.9176C106.856 21.405 106.189 21.1487 105.298 21.1487ZM97.6887 26.1312C97.6887 26.7065 97.5715 27.1205 97.3373 27.3733C97.103 27.6262 96.7307 27.7525 96.2204 27.7525C95.7008 27.7525 95.3216 27.6251 95.0827 27.3698C94.8437 27.1148 94.7243 26.7017 94.7243 26.1312V21.3366H92.8942V26.2008C92.8942 27.1611 93.1969 27.8895 93.8023 28.3859C94.4077 28.8822 95.2067 29.1303 96.1996 29.1303C97.1922 29.1303 97.9925 28.881 98.6003 28.3823C99.2079 27.8836 99.5119 27.1565 99.5119 26.2008V21.3366H97.6887V26.1312ZM89.446 27.0706C89.1351 27.5206 88.6712 27.7456 88.0543 27.7456C87.4326 27.7456 86.9641 27.5206 86.6486 27.0706C86.3331 26.6207 86.1755 25.9781 86.1755 25.143C86.1755 24.2941 86.332 23.6458 86.6452 23.1981C86.9584 22.7505 87.4233 22.5265 88.0403 22.5265C88.6667 22.5265 89.1351 22.7492 89.446 23.1946C89.7568 23.6399 89.9123 24.2871 89.9123 25.1361C89.9123 25.9758 89.7568 26.6207 89.446 27.0706ZM88.0821 21.1487C86.8991 21.1487 85.9829 21.5049 85.3335 22.2169C84.6839 22.9291 84.3592 23.9022 84.3592 25.1361C84.3592 26.3329 84.6839 27.2978 85.3335 28.0308C85.9829 28.7639 86.8737 29.1303 88.0056 29.1303C89.1839 29.1303 90.1002 28.7696 90.7543 28.0483C91.4085 27.327 91.7354 26.3563 91.7354 25.1361C91.7354 23.93 91.4119 22.9639 90.7647 22.2379C90.1176 21.5118 89.2234 21.1487 88.0821 21.1487ZM81.0654 20.1677C81.868 20.1677 82.6659 20.4111 83.4593 20.8982L84.0506 19.4717C83.2248 18.9197 82.2159 18.6437 81.0237 18.6437C79.5484 18.6437 78.3551 19.1181 77.4435 20.0667C76.5318 21.0154 76.0762 22.2739 76.0762 23.8418C76.0762 25.4933 76.512 26.7877 77.3843 27.7246C78.2564 28.6617 79.4371 29.1303 80.9263 29.1303C82.0998 29.1303 83.0765 28.8985 83.8558 28.4345L83.6053 26.9593C82.7656 27.3861 81.9189 27.5994 81.0654 27.5994C80.0912 27.5994 79.3408 27.277 78.8143 26.6322C78.2878 25.9874 78.0246 25.0759 78.0246 23.8974C78.0246 22.7609 78.297 21.8551 78.8422 21.1801C79.3872 20.5051 80.1283 20.1677 81.0654 20.1677ZM75.6278 21.3366H73.4567C73.3175 21.4805 73.0194 21.7844 72.5625 22.2482C72.1055 22.7121 71.7275 23.1042 71.4282 23.4243C71.1434 23.7282 70.8662 24.0391 70.5967 24.3567C70.5874 24.366 70.5376 24.4148 70.4471 24.5029L70.3045 24.642L70.3462 23.0972V18.7898H68.5231V28.9842H70.3462V26.1102L71.1047 25.5118L73.6237 28.9842H75.8296L72.4825 24.5934L75.6278 21.3366ZM65.333 22.5335C65.8759 22.5335 66.4625 22.6982 67.0935 23.0276L67.525 21.7264C66.908 21.3413 66.1518 21.1487 65.2564 21.1487C64.1384 21.1487 63.2371 21.4944 62.5531 22.1856C61.8686 22.8768 61.5266 23.8487 61.5266 25.1013C61.5266 26.3956 61.8524 27.3906 62.5043 28.0865C63.1561 28.7824 64.0665 29.1303 65.2356 29.1303C65.7087 29.1303 66.1169 29.084 66.4604 28.9911C66.8037 28.8985 67.1353 28.7454 67.4554 28.5319L67.2814 27.1472C66.6644 27.5416 66.0219 27.7386 65.3538 27.7386C64.7137 27.7386 64.2184 27.5159 63.8682 27.0706C63.5179 26.6253 63.3429 25.9758 63.3429 25.1222C63.3429 24.2779 63.5202 23.6355 63.8751 23.1946C64.2301 22.7539 64.716 22.5335 65.333 22.5335ZM58.608 26.7991C58.4734 27.0869 58.2496 27.3315 57.9364 27.5333C57.6234 27.7351 57.2556 27.836 56.8336 27.836C56.481 27.836 56.2096 27.749 56.0193 27.575C55.8291 27.4011 55.7341 27.1518 55.7341 26.827C55.7341 26.3538 55.9056 26.0107 56.249 25.7972C56.5923 25.5839 57.1328 25.4447 57.8703 25.3796C57.8888 25.3796 58.013 25.3704 58.2426 25.3517C58.4723 25.3334 58.5941 25.3239 58.608 25.3239V26.7991ZM57.4807 21.1487C56.4322 21.1487 55.458 21.3413 54.558 21.7264C54.5626 21.7357 54.6391 21.9445 54.7877 22.3526C54.936 22.7609 55.0126 22.972 55.0172 22.9859C55.9312 22.6378 56.6989 22.464 57.3207 22.464C57.7567 22.464 58.0815 22.5695 58.2948 22.7806C58.5081 22.9918 58.615 23.3292 58.615 23.793V24.1966C58.4942 24.2105 58.3297 24.2268 58.1208 24.2453C57.9121 24.264 57.7243 24.2825 57.5573 24.301C57.3903 24.3197 57.2348 24.3382 57.091 24.3567C56.0426 24.4588 55.2585 24.7011 54.7389 25.0839C54.2194 25.4667 53.9596 26.0546 53.9596 26.8479C53.9596 27.5855 54.1788 28.1504 54.6171 28.5424C55.0557 28.9345 55.6297 29.1303 56.3394 29.1303C56.859 29.1303 57.3009 29.0434 57.6651 28.8693C58.0293 28.6955 58.4015 28.4229 58.782 28.0517C58.782 28.0704 58.8306 28.2256 58.9281 28.518C59.0255 28.8102 59.0764 28.9657 59.0811 28.9842H60.4311V23.9949C60.4311 22.9929 60.1969 22.268 59.7283 21.8202C59.2597 21.3726 58.5106 21.1487 57.4807 21.1487ZM52.3897 27.6968C51.921 27.6968 51.6057 27.575 51.4433 27.3315C51.2809 27.0879 51.1998 26.623 51.1998 25.9364V18.7898H49.3767V25.9711C49.3767 26.5233 49.416 26.9848 49.4949 27.3559C49.5736 27.7271 49.7128 28.0471 49.9124 28.3163C50.1118 28.5853 50.3843 28.7814 50.73 28.9042C51.0756 29.027 51.5105 29.0885 52.0348 29.0885C52.1646 29.0885 52.3062 29.0805 52.4593 29.0643C52.6123 29.0479 52.7386 29.0317 52.8384 29.0155C52.9382 28.9992 53.0426 28.9797 53.1516 28.9564C53.2607 28.9332 53.3175 28.9216 53.3222 28.9216L53.2734 27.6203C52.9162 27.6714 52.6215 27.6968 52.3897 27.6968ZM44.3919 27.6203H42.7565V24.3149H44.3431C45.0993 24.3149 45.6584 24.4402 46.0202 24.6908C46.3821 24.9413 46.563 25.3517 46.563 25.9224C46.563 27.0544 45.8393 27.6203 44.3919 27.6203ZM42.7565 20.1746H43.9883C44.7722 20.1746 45.344 20.2744 45.7035 20.4738C46.0631 20.6734 46.2428 21.0398 46.2428 21.5733C46.2428 22.5243 45.6189 22.9998 44.3709 22.9998H42.7565V20.1746ZM46.5421 23.5425C46.7972 23.4638 47.0198 23.3536 47.2101 23.212C47.4003 23.0705 47.5486 22.9256 47.6555 22.777C47.7644 22.6242 47.8511 22.4567 47.9129 22.2796C47.9779 22.0964 48.0196 21.9328 48.0381 21.789C48.0568 21.6452 48.0661 21.4992 48.0661 21.3505C48.0661 20.4321 47.7343 19.7756 47.0709 19.3813C46.4075 18.987 45.4008 18.7898 44.0508 18.7898H40.8708V28.9842H44.6494C45.8507 28.9842 46.7914 28.7315 47.471 28.2256C48.1506 27.7202 48.4905 26.9871 48.4905 26.0267C48.4905 25.3912 48.3235 24.8566 47.9895 24.4228C47.6555 23.9891 47.1729 23.6956 46.5421 23.5425ZM7.55445 38.2974C7.55445 37.7038 8.8155 37.4272 9.66782 37.4272C9.90956 37.4272 10.3154 37.4759 10.3154 37.8011C10.3154 38.4374 9.00358 38.7846 8.32959 38.7846C7.97193 38.7846 7.55445 38.6569 7.55445 38.2974ZM10.7437 37.8011C10.7437 37.4133 10.461 36.999 9.66782 36.999C8.78868 36.999 7.12607 37.2704 7.12607 38.2974C7.12607 38.845 7.60983 39.2128 8.32959 39.2128C9.17129 39.2128 10.7437 38.7988 10.7437 37.8011ZM4.81544 42.1356C5.91136 42.5288 7.57339 42.9367 9.75347 42.9367C13.1877 42.9367 17.7535 42.5328 17.7535 39.0412C17.7535 37.7061 16.9156 37.1161 16.2424 36.6419C15.6503 36.2249 15.2854 35.9407 15.248 35.3749C15.2233 35.0018 15.3989 34.6636 15.6025 34.272C15.8308 33.8329 16.0894 33.3352 16.0894 32.7058C16.0894 31.8517 15.4559 30.9322 14.065 30.9322C12.9599 30.9322 11.9404 31.3643 10.8613 31.822C9.47343 32.4105 7.90006 33.0776 5.6768 33.0776C5.36965 33.0776 5.08343 33.0566 4.81544 33.0193V30.6664C5.32459 30.7296 5.83715 30.7614 6.35022 30.7615C9.01018 30.7615 10.8749 29.8645 12.5202 29.0732C13.9215 28.3991 15.2451 27.7625 16.863 27.7625C19.0993 27.7625 20.2692 29.0294 20.2692 30.2809C20.2692 31.1216 19.8331 31.6336 19.3714 32.1755C18.8957 32.7338 18.4038 33.3113 18.4038 34.2478C18.4038 35.1466 18.7568 35.6296 19.0983 36.0968C19.4968 36.6419 19.909 37.2059 19.909 38.5453C19.909 41.1012 17.4893 42.6833 15.1314 43.6183H4.81544V42.1356ZM4.81544 40.0307C5.87151 40.4111 6.98545 40.6059 8.10794 40.6064C10.0507 40.6064 13.3099 40.1777 13.3099 37.3072C13.3099 36.4627 12.6318 35.2733 11.124 35.2733C10.109 35.2733 9.30916 35.5401 8.53575 35.7982C7.74899 36.0606 7.00599 36.3085 6.03144 36.3085C5.60578 36.3085 5.19791 36.2352 4.81544 36.1186V33.9696C5.10133 34.0032 5.38895 34.0199 5.6768 34.0197C8.09173 34.0197 9.83123 33.2821 11.229 32.6895C12.2605 32.2521 13.1513 31.8743 14.065 31.8743C14.8628 31.8743 15.1471 32.3039 15.1471 32.7058C15.1471 33.105 14.9622 33.4608 14.7664 33.8376C14.5317 34.2893 14.2657 34.8011 14.3077 35.4373C14.377 36.4805 15.0797 36.9755 15.6996 37.4122C16.3207 37.8496 16.8112 38.1949 16.8112 39.0412C16.8112 40.309 16.0795 41.9944 9.75347 41.9944C7.47842 41.9944 5.80262 41.5145 4.81544 41.1239V40.0307ZM4.81544 36.5685C5.20035 36.6741 5.60722 36.7369 6.03144 36.7369C7.07557 36.7369 7.88686 36.4662 8.67132 36.2045C9.44646 35.9458 10.1784 35.7017 11.124 35.7017C12.452 35.7017 12.8817 36.7834 12.8817 37.3072C12.8817 39.1854 11.231 40.1782 8.10794 40.1782C6.76985 40.1782 5.63591 39.8801 4.81544 39.5686V36.5685ZM4.81544 28.3876C5.20162 28.4735 5.59595 28.5173 5.99156 28.5184C8.494 28.5184 10.4177 27.4703 12.4543 26.3607C14.5082 25.2417 16.632 24.0847 19.4329 24.0847C20.7296 24.0847 21.8346 24.4597 22.6279 25.1693C23.3983 25.8582 23.8056 26.797 23.8056 27.8842C23.8056 29.0248 23.1052 30.0513 22.3638 31.1379C21.5581 32.3191 20.7247 33.5402 20.7247 35.0218C20.7247 38.1605 23.2682 39.9974 27.7203 40.0973V41.2256C27.7012 41.2272 27.6824 41.2314 27.6644 41.2381C24.4353 42.4844 22.3483 40.2604 22.2548 40.1562C22.2346 40.1281 22.2079 40.1052 22.177 40.0897C22.1461 40.0741 22.1118 40.0662 22.0772 40.0668C22.0426 40.0674 22.0086 40.0763 21.9782 40.0929C21.9478 40.1095 21.9218 40.1332 21.9026 40.162C21.878 40.1994 21.8661 40.2438 21.8686 40.2885H21.867C21.867 40.2944 21.8514 40.9021 21.3187 41.7976C21.027 42.2881 20.5358 42.9301 19.7192 43.6183H16.228C16.7219 43.3847 17.2516 43.0981 17.7575 42.7532C19.4693 41.5857 20.3372 40.17 20.3372 38.5453C20.3372 37.066 19.8627 36.4168 19.444 35.844C19.1156 35.3948 18.832 35.0067 18.832 34.2478C18.832 33.4689 19.2524 32.9756 19.6974 32.4532C20.189 31.8762 20.6975 31.2794 20.6975 30.2809C20.6975 28.8165 19.3803 27.3341 16.863 27.3341C15.1474 27.3341 13.7811 27.9913 12.3345 28.6871C10.6521 29.4964 8.91249 30.3331 6.35022 30.3331C5.7689 30.3331 5.24626 30.2893 4.81544 30.2334V28.3876ZM4.81544 24.3894C5.30752 24.7275 6.03704 25.0157 7.0981 25.0157C9.48534 25.0157 11.2685 23.9504 13.1563 22.8223C15.0748 21.676 17.0587 20.4907 19.7753 20.4907C22.2344 20.4907 24.3597 21.3566 26.0919 23.0639C26.9056 23.866 27.4361 24.6756 27.7203 25.1715V27.7433C27.7155 27.7584 27.7116 27.7738 27.7084 27.7893C27.6073 28.2806 26.8277 28.915 26.0024 29.5865C24.4321 30.8642 22.4779 32.4542 22.4869 34.9366C22.4906 35.9807 22.9324 36.9231 23.6988 37.5222C24.4136 38.0809 25.2954 38.2678 26.155 38.2678C26.7022 38.2677 27.2399 38.1916 27.7203 38.088V39.6692C23.5404 39.5722 21.1531 37.8908 21.1531 35.0218C21.1531 33.6725 21.9485 32.5067 22.7176 31.3794C23.463 30.2868 24.2339 29.157 24.2339 27.8842C24.2339 25.3949 22.2595 23.6563 19.4329 23.6563C16.5228 23.6563 14.3505 24.8399 12.2495 25.9847C10.2621 27.0674 8.38482 28.09 5.99156 28.09C5.57393 28.09 5.17869 28.0341 4.81544 27.9477V24.3894ZM4.81544 4.81544H27.7203V24.3588C27.335 23.7877 26.8944 23.2559 26.4049 22.7711C25.1555 21.5355 22.9912 20.0625 19.7753 20.0625C16.9404 20.0625 14.905 21.2785 12.9367 22.4548C11.101 23.5516 9.36712 24.5875 7.0981 24.5875C6.1673 24.5875 5.41325 24.3494 4.8569 23.8797C4.84255 23.8676 4.82921 23.8554 4.81544 23.8432V4.81544ZM27.7203 31.0887C27.444 31.3167 27.178 31.5224 26.9208 31.7213C25.8085 32.5806 24.9301 33.2595 24.9301 34.5202C24.9301 35.0994 25.151 35.5479 25.5687 35.817C25.9047 36.0335 26.3289 36.1147 26.7575 36.1147C27.0889 36.1147 27.4225 36.0659 27.7203 35.9938V37.1215C26.2191 37.4838 25.0292 37.3663 24.2791 36.7798C23.7416 36.3597 23.4318 35.6866 23.4292 34.9331C23.4217 32.901 25.1086 31.5283 26.597 30.3173C27.0076 29.9832 27.3942 29.6679 27.7203 29.3554V31.0887ZM27.7203 35.5509C27.1011 35.7166 26.289 35.7714 25.8006 35.4571C25.5031 35.2652 25.3585 34.9588 25.3585 34.5202C25.3585 33.4698 26.1236 32.8784 27.1826 32.0601C27.363 31.9214 27.5422 31.7812 27.7203 31.6396V35.5509ZM27.7203 43.6183H20.3705C21.667 42.4106 22.0908 41.316 22.228 40.7205C22.5084 40.9634 22.976 41.3102 23.617 41.5916C24.5222 41.9888 25.963 42.3198 27.7203 41.6741V43.6183ZM3.87317 44.5604H28.6625V3.87317H3.87317V44.5604Z" fill="#292929"/>
          </svg>