<svg width="316" height="56" viewBox="0 0 316 56" fill="none" xmlns="http://www.w3.org/2000/svg">
<path d="M2 6H20.3164L22.2567 8.17668H3.9403L2 6Z" fill="#137A43"/>
<path d="M8.75224 8.95406H23.0328L25.1284 10.9753H10.8478L8.75224 8.95406Z" fill="#137A43"/>
<path d="M15.5821 11.7527L17.5224 13.7739H38.5552L40.806 11.7527H30.1731L28.0776 13.6184L26.1373 11.7527H15.5821Z" fill="#137A43"/>
<path d="M32.8119 8.95406L30.8716 10.9753H45.2299L47.403 8.95406H32.8119Z" fill="#137A43"/>
<path d="M35.8388 6L33.8985 8.17668H51.9045L54 6H35.8388Z" fill="#137A43"/>
<path d="M21.6358 14.629H24.6627L28.0776 17.9717L31.2597 14.629H34.4418L29.7075 19.5265L31.803 21.9364H28.8537L28.0776 21.2367L27.2239 21.9364H24.197L26.4478 19.5265L21.6358 14.629Z" fill="#137A43"/>
<path d="M24.197 22.7138H26.1373V41.371H24.197V22.7138Z" fill="#137A43"/>
<path d="M29.7851 41.371H31.803V22.7138H29.7851V41.371Z" fill="#137A43"/>
<path d="M26.9134 41.371H29.0866V22.7138H26.991L26.9134 41.371Z" fill="#137A43"/>
<path d="M23.0328 42.1484H32.9672V44.2473H23.0328V42.1484Z" fill="#137A43"/>
<path d="M20.8597 44.8693H35.2955V47.1237H20.8597V44.8693Z" fill="#137A43"/>
<path d="M18.6866 47.7456V50H37.2358V47.7456H18.6866Z" fill="#137A43"/>
<path d="M2 6H20.3164L22.2567 8.17668H3.9403L2 6Z" stroke="black"/>
<path d="M8.75224 8.95406H23.0328L25.1284 10.9753H10.8478L8.75224 8.95406Z" stroke="black"/>
<path d="M15.5821 11.7527L17.5224 13.7739H38.5552L40.806 11.7527H30.1731L28.0776 13.6184L26.1373 11.7527H15.5821Z" stroke="black"/>
<path d="M32.8119 8.95406L30.8716 10.9753H45.2299L47.403 8.95406H32.8119Z" stroke="black"/>
<path d="M35.8388 6L33.8985 8.17668H51.9045L54 6H35.8388Z" stroke="black"/>
<path d="M21.6358 14.629H24.6627L28.0776 17.9717L31.2597 14.629H34.4418L29.7075 19.5265L31.803 21.9364H28.8537L28.0776 21.2367L27.2239 21.9364H24.197L26.4478 19.5265L21.6358 14.629Z" stroke="black"/>
<path d="M24.197 22.7138H26.1373V41.371H24.197V22.7138Z" stroke="black"/>
<path d="M29.7851 41.371H31.803V22.7138H29.7851V41.371Z" stroke="black"/>
<path d="M26.9134 41.371H29.0866V22.7138H26.991L26.9134 41.371Z" stroke="black"/>
<path d="M23.0328 42.1484H32.9672V44.2473H23.0328V42.1484Z" stroke="black"/>
<path d="M20.8597 44.8693H35.2955V47.1237H20.8597V44.8693Z" stroke="black"/>
<path d="M18.6866 47.7456V50H37.2358V47.7456H18.6866Z" stroke="black"/>
<path d="M71.4917 6.16C73.3797 6.16 74.8437 6.608 75.8837 7.504C76.9397 8.384 77.4677 9.56 77.4677 11.032C77.4677 12.648 76.9477 13.88 75.9077 14.728C74.8677 15.576 73.4037 16 71.5157 16L71.1317 16.216H67.9877V22H63.9317V6.16H71.4917ZM70.9157 13.288C71.7157 13.288 72.3157 13.128 72.7157 12.808C73.1157 12.488 73.3157 11.976 73.3157 11.272C73.3157 10.584 73.1157 10.08 72.7157 9.76C72.3157 9.44 71.7157 9.28 70.9157 9.28H67.9877V13.288H70.9157ZM73.3397 14.152L78.4037 22H73.8437L69.7877 15.064L73.3397 14.152ZM85.7385 9.76C87.0025 9.76 88.1065 10.008 89.0505 10.504C90.0105 10.984 90.7545 11.696 91.2825 12.64C91.8265 13.568 92.0985 14.688 92.0985 16C92.0985 17.312 91.8265 18.44 91.2825 19.384C90.7545 20.312 90.0105 21.024 89.0505 21.52C88.1065 22 87.0025 22.24 85.7385 22.24C84.5065 22.24 83.4105 22 82.4505 21.52C81.4905 21.024 80.7385 20.312 80.1945 19.384C79.6665 18.44 79.4025 17.312 79.4025 16C79.4025 14.688 79.6665 13.568 80.1945 12.64C80.7385 11.696 81.4905 10.984 82.4505 10.504C83.4105 10.008 84.5065 9.76 85.7385 9.76ZM85.7385 12.664C85.2745 12.664 84.8745 12.776 84.5385 13C84.2025 13.224 83.9465 13.584 83.7705 14.08C83.5945 14.576 83.5065 15.216 83.5065 16C83.5065 16.784 83.5945 17.424 83.7705 17.92C83.9465 18.4 84.2025 18.76 84.5385 19C84.8745 19.224 85.2745 19.336 85.7385 19.336C86.2185 19.336 86.6265 19.224 86.9625 19C87.2985 18.76 87.5545 18.4 87.7305 17.92C87.9065 17.424 87.9945 16.784 87.9945 16C87.9945 15.216 87.9065 14.576 87.7305 14.08C87.5545 13.584 87.2985 13.224 86.9625 13C86.6265 12.776 86.2185 12.664 85.7385 12.664ZM100.082 9.76C101.298 9.76 102.306 9.936 103.106 10.288C103.922 10.624 104.554 11.08 105.002 11.656C105.466 12.216 105.754 12.824 105.866 13.48L102.098 14.728C101.986 14.04 101.778 13.528 101.474 13.192C101.186 12.84 100.762 12.664 100.202 12.664C99.6897 12.664 99.2577 12.784 98.9057 13.024C98.5697 13.248 98.3137 13.616 98.1377 14.128C97.9617 14.624 97.8737 15.264 97.8737 16.048C97.8737 16.832 97.9697 17.472 98.1617 17.968C98.3537 18.448 98.6257 18.8 98.9777 19.024C99.3297 19.232 99.7457 19.336 100.226 19.336C100.626 19.336 100.954 19.264 101.21 19.12C101.482 18.96 101.706 18.736 101.882 18.448C102.058 18.16 102.17 17.808 102.218 17.392L105.89 18.568C105.778 19.272 105.474 19.904 104.978 20.464C104.498 21.008 103.858 21.44 103.058 21.76C102.258 22.08 101.322 22.24 100.25 22.24C98.9377 22.24 97.7937 22 96.8177 21.52C95.8417 21.024 95.0897 20.312 94.5617 19.384C94.0337 18.44 93.7697 17.312 93.7697 16C93.7697 14.688 94.0337 13.568 94.5617 12.64C95.0897 11.696 95.8257 10.984 96.7697 10.504C97.7297 10.008 98.8337 9.76 100.082 9.76ZM121.187 10L115.427 16.144L114.659 16.36L111.227 20.2L111.203 16.024L116.651 10H121.187ZM112.091 4.912V22H108.011V4.912H112.091ZM116.051 13.6L121.451 22H116.939L113.387 16L116.051 13.6ZM127.887 22.24C126.687 22.24 125.567 22.048 124.527 21.664C123.503 21.264 122.655 20.696 121.983 19.96L123.903 17.704C124.303 18.216 124.831 18.648 125.487 19C126.159 19.336 126.903 19.504 127.719 19.504C128.215 19.504 128.623 19.432 128.943 19.288C129.263 19.144 129.423 18.92 129.423 18.616C129.423 18.392 129.343 18.216 129.183 18.088C129.023 17.944 128.703 17.824 128.223 17.728L126.543 17.392C125.039 17.088 123.967 16.64 123.327 16.048C122.703 15.44 122.391 14.648 122.391 13.672C122.391 13.016 122.591 12.392 122.991 11.8C123.391 11.192 124.007 10.704 124.839 10.336C125.671 9.952 126.735 9.76 128.031 9.76C129.247 9.76 130.319 9.936 131.247 10.288C132.175 10.64 132.911 11.152 133.455 11.824L131.511 14.032C131.127 13.552 130.631 13.176 130.023 12.904C129.415 12.632 128.807 12.496 128.199 12.496C127.815 12.496 127.487 12.536 127.215 12.616C126.959 12.68 126.767 12.776 126.639 12.904C126.511 13.032 126.447 13.192 126.447 13.384C126.447 13.592 126.543 13.776 126.735 13.936C126.943 14.08 127.319 14.208 127.863 14.32L130.047 14.752C131.279 14.976 132.167 15.384 132.711 15.976C133.255 16.568 133.527 17.28 133.527 18.112C133.527 18.896 133.319 19.6 132.903 20.224C132.487 20.848 131.863 21.344 131.031 21.712C130.199 22.064 129.151 22.24 127.887 22.24ZM135.644 22V10H139.292L139.412 12.328C139.796 11.48 140.332 10.84 141.02 10.408C141.724 9.976 142.532 9.76 143.444 9.76C144.34 9.76 145.116 9.96 145.772 10.36C146.428 10.76 146.916 11.352 147.236 12.136C147.492 11.608 147.82 11.168 148.22 10.816C148.636 10.464 149.108 10.2 149.636 10.024C150.164 9.848 150.708 9.76 151.268 9.76C152.068 9.76 152.772 9.92 153.38 10.24C153.988 10.544 154.468 11.016 154.82 11.656C155.188 12.28 155.372 13.064 155.372 14.008V22H151.292V14.944C151.292 14.176 151.14 13.64 150.836 13.336C150.548 13.032 150.156 12.88 149.66 12.88C149.26 12.88 148.892 12.984 148.556 13.192C148.236 13.384 147.988 13.68 147.812 14.08C147.636 14.48 147.548 14.984 147.548 15.592V22H143.468V14.944C143.468 14.176 143.316 13.64 143.012 13.336C142.708 13.032 142.316 12.88 141.836 12.88C141.468 12.88 141.116 12.976 140.78 13.168C140.46 13.36 140.204 13.664 140.012 14.08C139.82 14.48 139.724 15.008 139.724 15.664V22H135.644ZM160.277 8.608C159.445 8.608 158.837 8.456 158.453 8.152C158.085 7.832 157.901 7.336 157.901 6.664C157.901 5.976 158.085 5.48 158.453 5.176C158.837 4.856 159.445 4.696 160.277 4.696C161.093 4.696 161.693 4.856 162.077 5.176C162.461 5.48 162.653 5.976 162.653 6.664C162.653 7.336 162.461 7.832 162.077 8.152C161.693 8.456 161.093 8.608 160.277 8.608ZM162.317 10V22H158.237V10H162.317ZM170.238 6.184V17.728C170.238 18.304 170.374 18.72 170.646 18.976C170.934 19.216 171.326 19.336 171.822 19.336C172.206 19.336 172.534 19.296 172.806 19.216C173.094 19.12 173.35 18.984 173.574 18.808L174.006 21.328C173.606 21.616 173.102 21.84 172.494 22C171.886 22.16 171.262 22.24 170.622 22.24C169.71 22.24 168.918 22.112 168.246 21.856C167.59 21.6 167.078 21.192 166.71 20.632C166.358 20.072 166.174 19.328 166.158 18.4V7.312L170.238 6.184ZM173.814 10V12.904H164.094V10H173.814ZM175.98 22V4.912H180.06V12.184C180.412 11.384 180.916 10.784 181.572 10.384C182.228 9.968 182.988 9.76 183.852 9.76C184.684 9.76 185.404 9.92 186.012 10.24C186.636 10.56 187.124 11.032 187.476 11.656C187.828 12.28 188.004 13.064 188.004 14.008V22H183.924V15.136C183.924 14.272 183.764 13.68 183.444 13.36C183.14 13.024 182.732 12.856 182.22 12.856C181.836 12.856 181.476 12.952 181.14 13.144C180.804 13.336 180.54 13.64 180.348 14.056C180.156 14.472 180.06 15.016 180.06 15.688V22H175.98ZM212.058 17.464C211.754 18.568 211.266 19.48 210.594 20.2C209.922 20.904 209.122 21.424 208.194 21.76C207.266 22.08 206.242 22.24 205.122 22.24C203.522 22.24 202.138 21.92 200.97 21.28C199.802 20.624 198.906 19.688 198.282 18.472C197.658 17.256 197.346 15.792 197.346 14.08C197.346 12.368 197.658 10.904 198.282 9.688C198.906 8.472 199.802 7.544 200.97 6.904C202.138 6.248 203.514 5.92 205.098 5.92C206.202 5.92 207.218 6.08 208.146 6.4C209.074 6.704 209.858 7.176 210.498 7.816C211.138 8.456 211.594 9.28 211.866 10.288L208.242 11.752C208.018 10.76 207.65 10.08 207.138 9.712C206.642 9.344 206.01 9.16 205.242 9.16C204.49 9.16 203.834 9.344 203.274 9.712C202.73 10.08 202.306 10.632 202.002 11.368C201.714 12.088 201.57 12.992 201.57 14.08C201.57 15.152 201.706 16.056 201.978 16.792C202.25 17.528 202.658 18.08 203.202 18.448C203.762 18.816 204.45 19 205.266 19C206.034 19 206.682 18.792 207.21 18.376C207.754 17.944 208.122 17.288 208.314 16.408L212.058 17.464ZM214.066 22V4.912H218.146V12.184C218.498 11.384 219.002 10.784 219.658 10.384C220.314 9.968 221.074 9.76 221.938 9.76C222.77 9.76 223.49 9.92 224.098 10.24C224.722 10.56 225.21 11.032 225.562 11.656C225.914 12.28 226.09 13.064 226.09 14.008V22H222.01V15.136C222.01 14.272 221.85 13.68 221.53 13.36C221.226 13.024 220.818 12.856 220.306 12.856C219.922 12.856 219.562 12.952 219.226 13.144C218.89 13.336 218.626 13.64 218.434 14.056C218.242 14.472 218.146 15.016 218.146 15.688V22H214.066ZM235.644 14.392C235.644 13.832 235.484 13.392 235.164 13.072C234.86 12.736 234.444 12.568 233.916 12.568C233.388 12.568 232.932 12.704 232.548 12.976C232.18 13.232 231.924 13.696 231.78 14.368L228.324 13.552C228.548 12.4 229.14 11.48 230.1 10.792C231.06 10.104 232.412 9.76 234.156 9.76C235.324 9.76 236.316 9.936 237.132 10.288C237.964 10.624 238.596 11.136 239.028 11.824C239.476 12.496 239.7 13.328 239.7 14.32V18.712C239.7 19.336 239.98 19.648 240.54 19.648C240.828 19.648 241.06 19.616 241.236 19.552L240.996 21.88C240.516 22.104 239.932 22.216 239.244 22.216C238.62 22.216 238.068 22.12 237.588 21.928C237.108 21.72 236.732 21.416 236.46 21.016C236.188 20.6 236.052 20.08 236.052 19.456V19.312L236.508 19.144C236.508 19.832 236.3 20.408 235.884 20.872C235.484 21.336 234.956 21.68 234.3 21.904C233.66 22.128 232.988 22.24 232.284 22.24C231.468 22.24 230.756 22.112 230.148 21.856C229.54 21.6 229.068 21.232 228.732 20.752C228.412 20.256 228.252 19.648 228.252 18.928C228.252 18.064 228.508 17.352 229.02 16.792C229.548 16.216 230.372 15.816 231.492 15.592L236.028 14.656L236.004 16.816L233.7 17.296C233.22 17.392 232.86 17.536 232.62 17.728C232.396 17.904 232.284 18.176 232.284 18.544C232.284 18.896 232.412 19.16 232.668 19.336C232.924 19.512 233.228 19.6 233.58 19.6C233.852 19.6 234.108 19.56 234.348 19.48C234.604 19.4 234.828 19.28 235.02 19.12C235.212 18.944 235.364 18.728 235.476 18.472C235.588 18.216 235.644 17.912 235.644 17.56V14.392ZM242.847 22V10H246.495L246.615 12.328C246.999 11.48 247.535 10.84 248.223 10.408C248.927 9.976 249.735 9.76 250.647 9.76C251.543 9.76 252.319 9.96 252.975 10.36C253.631 10.76 254.119 11.352 254.439 12.136C254.695 11.608 255.023 11.168 255.423 10.816C255.839 10.464 256.311 10.2 256.839 10.024C257.367 9.848 257.911 9.76 258.471 9.76C259.271 9.76 259.975 9.92 260.583 10.24C261.191 10.544 261.671 11.016 262.023 11.656C262.391 12.28 262.575 13.064 262.575 14.008V22H258.495V14.944C258.495 14.176 258.343 13.64 258.039 13.336C257.751 13.032 257.359 12.88 256.863 12.88C256.463 12.88 256.095 12.984 255.759 13.192C255.439 13.384 255.191 13.68 255.015 14.08C254.839 14.48 254.751 14.984 254.751 15.592V22H250.671V14.944C250.671 14.176 250.519 13.64 250.215 13.336C249.911 13.032 249.519 12.88 249.039 12.88C248.671 12.88 248.319 12.976 247.983 13.168C247.663 13.36 247.407 13.664 247.215 14.08C247.023 14.48 246.927 15.008 246.927 15.664V22H242.847ZM273.145 22.24C272.361 22.24 271.665 22.064 271.057 21.712C270.465 21.36 269.977 20.88 269.593 20.272C269.209 19.648 268.961 18.944 268.849 18.16L269.233 17.656L269.017 22H265.441V4.912H269.521V13.768L269.137 13.192C269.361 12.2 269.817 11.384 270.505 10.744C271.193 10.088 272.121 9.76 273.289 9.76C274.217 9.76 275.041 10.008 275.761 10.504C276.497 11 277.065 11.72 277.465 12.664C277.881 13.592 278.089 14.72 278.089 16.048C278.089 17.344 277.881 18.456 277.465 19.384C277.049 20.312 276.473 21.024 275.737 21.52C275.001 22 274.137 22.24 273.145 22.24ZM271.729 19.24C272.433 19.24 272.985 18.984 273.385 18.472C273.785 17.944 273.985 17.12 273.985 16C273.985 14.88 273.785 14.064 273.385 13.552C272.985 13.024 272.433 12.76 271.729 12.76C271.265 12.76 270.865 12.896 270.529 13.168C270.209 13.424 269.961 13.792 269.785 14.272C269.609 14.752 269.521 15.336 269.521 16.024C269.521 16.712 269.609 17.296 269.785 17.776C269.961 18.256 270.217 18.624 270.553 18.88C270.889 19.12 271.281 19.24 271.729 19.24ZM286.343 22.24C285.015 22.24 283.863 21.992 282.887 21.496C281.927 21 281.183 20.288 280.655 19.36C280.127 18.432 279.863 17.312 279.863 16C279.863 14.688 280.127 13.568 280.655 12.64C281.183 11.712 281.919 11 282.863 10.504C283.823 10.008 284.919 9.76 286.151 9.76C287.415 9.76 288.487 10.008 289.367 10.504C290.263 10.984 290.943 11.656 291.407 12.52C291.871 13.368 292.103 14.344 292.103 15.448C292.103 15.736 292.095 16.024 292.079 16.312C292.063 16.6 292.039 16.84 292.007 17.032H282.503V14.848H290.207L288.263 15.592C288.263 14.632 288.087 13.896 287.735 13.384C287.399 12.872 286.871 12.616 286.151 12.616C285.639 12.616 285.199 12.736 284.831 12.976C284.479 13.216 284.207 13.592 284.015 14.104C283.839 14.616 283.751 15.272 283.751 16.072C283.751 16.856 283.855 17.496 284.063 17.992C284.271 18.472 284.567 18.824 284.951 19.048C285.335 19.256 285.799 19.36 286.343 19.36C286.951 19.36 287.431 19.24 287.783 19C288.151 18.76 288.423 18.424 288.599 17.992L291.863 19.072C291.639 19.76 291.247 20.344 290.687 20.824C290.143 21.288 289.487 21.64 288.719 21.88C287.967 22.12 287.175 22.24 286.343 22.24ZM294.386 22V10H297.986L298.154 12.592C298.458 11.696 298.906 11 299.498 10.504C300.106 10.008 300.874 9.76 301.802 9.76C302.106 9.76 302.362 9.784 302.57 9.832C302.794 9.88 302.97 9.944 303.098 10.024L302.69 13.384C302.53 13.32 302.322 13.272 302.066 13.24C301.826 13.192 301.53 13.168 301.178 13.168C300.698 13.168 300.25 13.272 299.834 13.48C299.418 13.688 299.082 14 298.826 14.416C298.586 14.816 298.466 15.328 298.466 15.952V22H294.386ZM309.527 22.24C308.327 22.24 307.207 22.048 306.167 21.664C305.143 21.264 304.295 20.696 303.623 19.96L305.543 17.704C305.943 18.216 306.471 18.648 307.127 19C307.799 19.336 308.543 19.504 309.359 19.504C309.855 19.504 310.263 19.432 310.583 19.288C310.903 19.144 311.063 18.92 311.063 18.616C311.063 18.392 310.983 18.216 310.823 18.088C310.663 17.944 310.343 17.824 309.863 17.728L308.183 17.392C306.679 17.088 305.607 16.64 304.967 16.048C304.343 15.44 304.031 14.648 304.031 13.672C304.031 13.016 304.231 12.392 304.631 11.8C305.031 11.192 305.647 10.704 306.479 10.336C307.311 9.952 308.375 9.76 309.671 9.76C310.887 9.76 311.959 9.936 312.887 10.288C313.815 10.64 314.551 11.152 315.095 11.824L313.151 14.032C312.767 13.552 312.271 13.176 311.663 12.904C311.055 12.632 310.447 12.496 309.839 12.496C309.455 12.496 309.127 12.536 308.855 12.616C308.599 12.68 308.407 12.776 308.279 12.904C308.151 13.032 308.087 13.192 308.087 13.384C308.087 13.592 308.183 13.776 308.375 13.936C308.583 14.08 308.959 14.208 309.503 14.32L311.687 14.752C312.919 14.976 313.807 15.384 314.351 15.976C314.895 16.568 315.167 17.28 315.167 18.112C315.167 18.896 314.959 19.6 314.543 20.224C314.127 20.848 313.503 21.344 312.671 21.712C311.839 22.064 310.791 22.24 309.527 22.24Z" fill="#137A43"/>
<path d="M122.435 47.336H130.787V50H119.123V34.16H122.435V47.336ZM140.041 42.344C140.041 41.656 139.841 41.12 139.441 40.736C139.057 40.352 138.545 40.16 137.905 40.16C137.313 40.16 136.793 40.312 136.345 40.616C135.897 40.92 135.569 41.424 135.361 42.128L132.553 41.264C132.825 40.208 133.417 39.36 134.329 38.72C135.257 38.08 136.497 37.76 138.049 37.76C139.105 37.76 140.025 37.928 140.809 38.264C141.593 38.584 142.201 39.072 142.633 39.728C143.081 40.384 143.305 41.208 143.305 42.2V47.072C143.305 47.68 143.593 47.984 144.169 47.984C144.441 47.984 144.697 47.944 144.937 47.864L144.745 49.904C144.329 50.112 143.809 50.216 143.185 50.216C142.625 50.216 142.121 50.12 141.673 49.928C141.225 49.736 140.873 49.448 140.617 49.064C140.361 48.664 140.233 48.168 140.233 47.576V47.48L140.809 47.384C140.713 47.992 140.449 48.512 140.017 48.944C139.585 49.36 139.057 49.68 138.433 49.904C137.825 50.128 137.193 50.24 136.537 50.24C135.721 50.24 135.017 50.12 134.425 49.88C133.833 49.624 133.377 49.256 133.057 48.776C132.737 48.296 132.577 47.704 132.577 47C132.577 46.104 132.865 45.376 133.441 44.816C134.017 44.24 134.841 43.848 135.913 43.64L140.425 42.728L140.401 44.768L137.521 45.344C136.977 45.456 136.561 45.608 136.273 45.8C136.001 45.976 135.865 46.272 135.865 46.688C135.865 47.088 136.009 47.392 136.297 47.6C136.601 47.808 136.961 47.912 137.377 47.912C137.713 47.912 138.041 47.872 138.361 47.792C138.681 47.712 138.969 47.584 139.225 47.408C139.481 47.232 139.681 46.992 139.825 46.688C139.969 46.384 140.041 46.016 140.041 45.584V42.344ZM162.087 38H165.591L161.751 50H157.959L155.343 41.84L152.823 50H149.031L145.191 38H148.695L151.095 47.192L153.759 38H157.023L159.711 47.192L162.087 38ZM178.099 47.336H186.451V50H174.787V34.16H178.099V47.336ZM190.521 36.272C189.833 36.272 189.321 36.128 188.985 35.84C188.649 35.536 188.481 35.096 188.481 34.52C188.481 33.928 188.649 33.488 188.985 33.2C189.321 32.896 189.833 32.744 190.521 32.744C191.209 32.744 191.721 32.896 192.057 33.2C192.393 33.488 192.561 33.928 192.561 34.52C192.561 35.096 192.393 35.536 192.057 35.84C191.721 36.128 191.209 36.272 190.521 36.272ZM192.153 38V50H188.865V38H192.153ZM202.694 50.24C201.958 50.24 201.286 50.088 200.678 49.784C200.086 49.464 199.59 49.032 199.19 48.488C198.806 47.928 198.542 47.304 198.398 46.616L198.734 46.184L198.542 50H195.638V32.744H198.926V41.384L198.614 40.88C198.87 39.984 199.358 39.24 200.078 38.648C200.798 38.056 201.702 37.76 202.79 37.76C203.734 37.76 204.59 38.008 205.358 38.504C206.126 39 206.726 39.712 207.158 40.64C207.606 41.568 207.83 42.696 207.83 44.024C207.83 45.32 207.606 46.432 207.158 47.36C206.726 48.288 206.118 49 205.334 49.496C204.566 49.992 203.686 50.24 202.694 50.24ZM201.71 47.72C202.59 47.72 203.278 47.408 203.774 46.784C204.286 46.144 204.542 45.216 204.542 44C204.542 42.784 204.294 41.864 203.798 41.24C203.302 40.6 202.614 40.28 201.734 40.28C201.158 40.28 200.662 40.432 200.246 40.736C199.83 41.04 199.502 41.472 199.262 42.032C199.038 42.592 198.926 43.256 198.926 44.024C198.926 44.808 199.038 45.48 199.262 46.04C199.502 46.584 199.83 47 200.246 47.288C200.678 47.576 201.166 47.72 201.71 47.72ZM210.685 50V38H213.541L213.757 40.352C214.077 39.52 214.541 38.88 215.149 38.432C215.773 37.984 216.549 37.76 217.477 37.76C217.749 37.76 217.997 37.784 218.221 37.832C218.445 37.88 218.629 37.944 218.773 38.024L218.389 40.784C218.229 40.72 218.029 40.672 217.789 40.64C217.565 40.608 217.269 40.592 216.901 40.592C216.421 40.592 215.957 40.712 215.509 40.952C215.061 41.176 214.693 41.528 214.405 42.008C214.117 42.472 213.973 43.064 213.973 43.784V50H210.685ZM227.439 42.344C227.439 41.656 227.239 41.12 226.839 40.736C226.455 40.352 225.943 40.16 225.303 40.16C224.711 40.16 224.191 40.312 223.743 40.616C223.295 40.92 222.967 41.424 222.759 42.128L219.951 41.264C220.223 40.208 220.815 39.36 221.727 38.72C222.655 38.08 223.895 37.76 225.447 37.76C226.503 37.76 227.423 37.928 228.207 38.264C228.991 38.584 229.599 39.072 230.031 39.728C230.479 40.384 230.703 41.208 230.703 42.2V47.072C230.703 47.68 230.991 47.984 231.567 47.984C231.839 47.984 232.095 47.944 232.335 47.864L232.143 49.904C231.727 50.112 231.207 50.216 230.583 50.216C230.023 50.216 229.519 50.12 229.071 49.928C228.623 49.736 228.271 49.448 228.015 49.064C227.759 48.664 227.631 48.168 227.631 47.576V47.48L228.207 47.384C228.111 47.992 227.847 48.512 227.415 48.944C226.983 49.36 226.455 49.68 225.831 49.904C225.223 50.128 224.591 50.24 223.935 50.24C223.119 50.24 222.415 50.12 221.823 49.88C221.231 49.624 220.775 49.256 220.455 48.776C220.135 48.296 219.975 47.704 219.975 47C219.975 46.104 220.263 45.376 220.839 44.816C221.415 44.24 222.239 43.848 223.311 43.64L227.823 42.728L227.799 44.768L224.919 45.344C224.375 45.456 223.959 45.608 223.671 45.8C223.399 45.976 223.263 46.272 223.263 46.688C223.263 47.088 223.407 47.392 223.695 47.6C223.999 47.808 224.359 47.912 224.775 47.912C225.111 47.912 225.439 47.872 225.759 47.792C226.079 47.712 226.367 47.584 226.623 47.408C226.879 47.232 227.079 46.992 227.223 46.688C227.367 46.384 227.439 46.016 227.439 45.584V42.344ZM234.38 50V38H237.236L237.452 40.352C237.772 39.52 238.236 38.88 238.844 38.432C239.468 37.984 240.244 37.76 241.172 37.76C241.444 37.76 241.692 37.784 241.916 37.832C242.14 37.88 242.324 37.944 242.468 38.024L242.084 40.784C241.924 40.72 241.724 40.672 241.484 40.64C241.26 40.608 240.964 40.592 240.596 40.592C240.116 40.592 239.652 40.712 239.204 40.952C238.756 41.176 238.388 41.528 238.1 42.008C237.812 42.472 237.668 43.064 237.668 43.784V50H234.38ZM255.785 38L250.937 50.744C250.553 51.832 250.121 52.696 249.641 53.336C249.177 53.976 248.633 54.44 248.009 54.728C247.401 55.016 246.673 55.16 245.825 55.16C245.201 55.16 244.625 55.08 244.097 54.92C243.585 54.776 243.137 54.584 242.753 54.344L243.449 51.968C243.753 52.208 244.073 52.376 244.409 52.472C244.745 52.584 245.129 52.64 245.561 52.64C246.009 52.64 246.393 52.544 246.713 52.352C247.049 52.16 247.329 51.776 247.553 51.2L247.961 50.168L246.641 47.048L242.969 38H246.617L248.897 45.2L249.521 47.6L250.265 45.056L252.449 38H255.785ZM257.575 46.328C258.215 46.328 258.719 46.504 259.087 46.856C259.471 47.208 259.663 47.68 259.663 48.272C259.663 48.88 259.471 49.36 259.087 49.712C258.719 50.048 258.215 50.216 257.575 50.216C256.935 50.216 256.423 50.048 256.039 49.712C255.671 49.36 255.487 48.88 255.487 48.272C255.487 47.68 255.671 47.208 256.039 46.856C256.423 46.504 256.935 46.328 257.575 46.328Z" fill="#02D764"/>
</svg>
