<svg width="168" height="35" viewBox="0 0 168 35" fill="none" xmlns="http://www.w3.org/2000/svg">
<rect x="0.5" width="167" height="35" rx="8" fill="#FBEAE9"/>
<rect x="16.5" y="11.5" width="12" height="12" rx="6" fill="#BA110B"/>
<path d="M45.612 20.27C45.612 20.858 45.4673 21.3667 45.178 21.796C44.8887 22.2253 44.4687 22.5567 43.918 22.79C43.3767 23.0233 42.728 23.14 41.972 23.14C41.608 23.14 41.258 23.1167 40.922 23.07C40.5953 23.0327 40.2827 22.972 39.984 22.888C39.6947 22.804 39.424 22.7013 39.172 22.58V20.9C39.592 21.0867 40.054 21.2593 40.558 21.418C41.062 21.5673 41.5753 21.642 42.098 21.642C42.4993 21.642 42.826 21.5907 43.078 21.488C43.3393 21.376 43.5307 21.2267 43.652 21.04C43.7733 20.844 43.834 20.62 43.834 20.368C43.834 20.088 43.7547 19.85 43.596 19.654C43.4373 19.458 43.204 19.276 42.896 19.108C42.588 18.94 42.2053 18.7627 41.748 18.576C41.44 18.4453 41.1367 18.3007 40.838 18.142C40.5487 17.974 40.2873 17.7733 40.054 17.54C39.8207 17.3067 39.634 17.0313 39.494 16.714C39.354 16.3967 39.284 16.0233 39.284 15.594C39.284 15.0247 39.4193 14.5347 39.69 14.124C39.97 13.7133 40.3573 13.4007 40.852 13.186C41.356 12.9713 41.9393 12.864 42.602 12.864C43.134 12.864 43.6333 12.92 44.1 13.032C44.5667 13.144 45.0287 13.3027 45.486 13.508L44.912 14.95C44.5013 14.7727 44.1047 14.6327 43.722 14.53C43.3393 14.4273 42.9473 14.376 42.546 14.376C42.2287 14.376 41.958 14.4273 41.734 14.53C41.51 14.6233 41.342 14.7587 41.23 14.936C41.118 15.1133 41.062 15.3187 41.062 15.552C41.062 15.8227 41.132 16.0513 41.272 16.238C41.412 16.4247 41.6267 16.602 41.916 16.77C42.2147 16.9287 42.5973 17.1107 43.064 17.316C43.6053 17.5493 44.0627 17.792 44.436 18.044C44.8093 18.296 45.0987 18.5993 45.304 18.954C45.5093 19.3087 45.612 19.7473 45.612 20.27ZM50.1033 15.272C50.7846 15.272 51.3679 15.412 51.8533 15.692C52.3479 15.9627 52.7306 16.3547 53.0013 16.868C53.2719 17.372 53.4073 17.988 53.4073 18.716V19.612H48.3953C48.4139 20.3027 48.6053 20.8393 48.9693 21.222C49.3333 21.5953 49.8373 21.782 50.4813 21.782C50.9759 21.782 51.4146 21.7353 51.7973 21.642C52.1893 21.5393 52.5906 21.3947 53.0013 21.208V22.622C52.6279 22.7993 52.2406 22.93 51.8393 23.014C51.4379 23.098 50.9573 23.14 50.3973 23.14C49.6599 23.14 49.0019 23 48.4233 22.72C47.8539 22.4307 47.4059 21.9967 47.0793 21.418C46.7619 20.8393 46.6033 20.1207 46.6033 19.262C46.6033 18.394 46.7479 17.666 47.0373 17.078C47.3359 16.4807 47.7466 16.0327 48.2693 15.734C48.7919 15.426 49.4033 15.272 50.1033 15.272ZM50.1033 16.574C49.6366 16.574 49.2539 16.728 48.9553 17.036C48.6659 17.3347 48.4933 17.7827 48.4373 18.38H51.6993C51.6993 18.0253 51.6386 17.7127 51.5173 17.442C51.4053 17.1713 51.2326 16.9613 50.9993 16.812C50.7659 16.6533 50.4673 16.574 50.1033 16.574ZM58.882 15.272C58.994 15.272 59.1247 15.2767 59.274 15.286C59.4234 15.2953 59.5494 15.314 59.652 15.342L59.498 16.98C59.414 16.9613 59.302 16.9473 59.162 16.938C59.0314 16.9193 58.9147 16.91 58.812 16.91C58.532 16.91 58.2614 16.9567 58 17.05C57.748 17.134 57.5194 17.2647 57.314 17.442C57.118 17.61 56.9594 17.8293 56.838 18.1C56.726 18.3707 56.67 18.6927 56.67 19.066V23H54.906V15.412H56.264L56.516 16.728H56.6C56.7494 16.4573 56.936 16.2147 57.16 16C57.384 15.776 57.6407 15.5987 57.93 15.468C58.2287 15.3373 58.546 15.272 58.882 15.272ZM62.5284 23L59.6444 15.412H61.5064L63.0184 19.794C63.0837 19.9713 63.1444 20.1673 63.2004 20.382C63.2564 20.5873 63.303 20.7927 63.3404 20.998C63.387 21.194 63.415 21.3667 63.4244 21.516H63.4804C63.499 21.3573 63.5317 21.18 63.5784 20.984C63.625 20.7787 63.6764 20.5733 63.7324 20.368C63.7977 20.1627 63.8584 19.9713 63.9144 19.794L65.4264 15.412H67.2884L64.4044 23H62.5284ZM69.905 15.412V23H68.141V15.412H69.905ZM69.023 12.486C69.2843 12.486 69.513 12.556 69.709 12.696C69.905 12.8267 70.003 13.0647 70.003 13.41C70.003 13.746 69.905 13.9887 69.709 14.138C69.513 14.278 69.2843 14.348 69.023 14.348C68.7523 14.348 68.519 14.278 68.323 14.138C68.1363 13.9887 68.043 13.746 68.043 13.41C68.043 13.0647 68.1363 12.8267 68.323 12.696C68.519 12.556 68.7523 12.486 69.023 12.486ZM74.9465 23.14C74.2278 23.14 73.6025 23.0047 73.0705 22.734C72.5478 22.454 72.1418 22.0293 71.8525 21.46C71.5725 20.8813 71.4325 20.144 71.4325 19.248C71.4325 18.3147 71.5865 17.5587 71.8945 16.98C72.2118 16.392 72.6458 15.9627 73.1965 15.692C73.7471 15.412 74.3771 15.272 75.0865 15.272C75.5625 15.272 75.9871 15.3187 76.3605 15.412C76.7338 15.5053 77.0511 15.6173 77.3125 15.748L76.7945 17.134C76.5051 17.022 76.2158 16.9287 75.9265 16.854C75.6371 16.77 75.3571 16.728 75.0865 16.728C74.6665 16.728 74.3165 16.8213 74.0365 17.008C73.7658 17.1947 73.5651 17.4747 73.4345 17.848C73.3038 18.212 73.2385 18.674 73.2385 19.234C73.2385 19.7753 73.3038 20.228 73.4345 20.592C73.5745 20.956 73.7798 21.2313 74.0505 21.418C74.3211 21.5953 74.6571 21.684 75.0585 21.684C75.4878 21.684 75.8658 21.6327 76.1925 21.53C76.5191 21.4273 76.8271 21.2873 77.1165 21.11V22.636C76.8271 22.8133 76.5145 22.9393 76.1785 23.014C75.8518 23.098 75.4411 23.14 74.9465 23.14ZM81.6662 15.272C82.3475 15.272 82.9308 15.412 83.4162 15.692C83.9108 15.9627 84.2935 16.3547 84.5642 16.868C84.8348 17.372 84.9702 17.988 84.9702 18.716V19.612H79.9582C79.9768 20.3027 80.1682 20.8393 80.5322 21.222C80.8962 21.5953 81.4002 21.782 82.0442 21.782C82.5388 21.782 82.9775 21.7353 83.3602 21.642C83.7522 21.5393 84.1535 21.3947 84.5642 21.208V22.622C84.1908 22.7993 83.8035 22.93 83.4022 23.014C83.0008 23.098 82.5202 23.14 81.9602 23.14C81.2228 23.14 80.5648 23 79.9862 22.72C79.4168 22.4307 78.9688 21.9967 78.6422 21.418C78.3248 20.8393 78.1662 20.1207 78.1662 19.262C78.1662 18.394 78.3108 17.666 78.6002 17.078C78.8988 16.4807 79.3095 16.0327 79.8322 15.734C80.3548 15.426 80.9662 15.272 81.6662 15.272ZM81.6662 16.574C81.1995 16.574 80.8168 16.728 80.5182 17.036C80.2288 17.3347 80.0562 17.7827 80.0002 18.38H83.2622C83.2622 18.0253 83.2015 17.7127 83.0802 17.442C82.9682 17.1713 82.7955 16.9613 82.5622 16.812C82.3288 16.6533 82.0302 16.574 81.6662 16.574ZM92.9756 13.004C94.273 13.004 95.2156 13.2747 95.8036 13.816C96.401 14.3573 96.6996 15.104 96.6996 16.056C96.6996 16.4853 96.6343 16.896 96.5036 17.288C96.373 17.6707 96.1536 18.016 95.8456 18.324C95.5376 18.632 95.1316 18.8747 94.6276 19.052C94.133 19.2293 93.517 19.318 92.7796 19.318H91.7856V23H89.9936V13.004H92.9756ZM92.8636 14.488H91.7856V17.834H92.5976C93.083 17.834 93.4936 17.778 93.8296 17.666C94.175 17.5447 94.4363 17.358 94.6136 17.106C94.791 16.854 94.8796 16.5273 94.8796 16.126C94.8796 15.5753 94.7163 15.1647 94.3896 14.894C94.063 14.6233 93.5543 14.488 92.8636 14.488ZM102.19 15.272C102.302 15.272 102.432 15.2767 102.582 15.286C102.731 15.2953 102.857 15.314 102.96 15.342L102.806 16.98C102.722 16.9613 102.61 16.9473 102.47 16.938C102.339 16.9193 102.222 16.91 102.12 16.91C101.84 16.91 101.569 16.9567 101.308 17.05C101.056 17.134 100.827 17.2647 100.622 17.442C100.426 17.61 100.267 17.8293 100.146 18.1C100.034 18.3707 99.9776 18.6927 99.9776 19.066V23H98.2136V15.412H99.5716L99.8236 16.728H99.9076C100.057 16.4573 100.244 16.2147 100.468 16C100.692 15.776 100.948 15.5987 101.238 15.468C101.536 15.3373 101.854 15.272 102.19 15.272ZM110.589 19.192C110.589 19.8267 110.505 20.3867 110.337 20.872C110.169 21.3573 109.926 21.7727 109.609 22.118C109.301 22.454 108.918 22.7107 108.461 22.888C108.013 23.056 107.513 23.14 106.963 23.14C106.44 23.14 105.959 23.056 105.521 22.888C105.082 22.7107 104.699 22.454 104.373 22.118C104.055 21.7727 103.808 21.3573 103.631 20.872C103.453 20.3867 103.365 19.8267 103.365 19.192C103.365 18.352 103.509 17.6427 103.799 17.064C104.088 16.476 104.503 16.0327 105.045 15.734C105.595 15.426 106.244 15.272 106.991 15.272C107.7 15.272 108.321 15.426 108.853 15.734C109.394 16.0327 109.819 16.476 110.127 17.064C110.435 17.6427 110.589 18.352 110.589 19.192ZM105.171 19.192C105.171 19.724 105.231 20.1813 105.353 20.564C105.483 20.9373 105.679 21.222 105.941 21.418C106.211 21.614 106.557 21.712 106.977 21.712C107.406 21.712 107.751 21.614 108.013 21.418C108.283 21.222 108.479 20.9373 108.601 20.564C108.722 20.1813 108.783 19.724 108.783 19.192C108.783 18.6507 108.717 18.198 108.587 17.834C108.465 17.4607 108.269 17.1807 107.999 16.994C107.737 16.798 107.397 16.7 106.977 16.7C106.342 16.7 105.88 16.9147 105.591 17.344C105.311 17.7733 105.171 18.3893 105.171 19.192ZM113.609 23L110.725 15.412H112.587L114.099 19.794C114.164 19.9713 114.225 20.1673 114.281 20.382C114.337 20.5873 114.383 20.7927 114.421 20.998C114.467 21.194 114.495 21.3667 114.505 21.516H114.561C114.579 21.3573 114.612 21.18 114.659 20.984C114.705 20.7787 114.757 20.5733 114.813 20.368C114.878 20.1627 114.939 19.9713 114.995 19.794L116.507 15.412H118.369L115.485 23H113.609ZM120.985 15.412V23H119.221V15.412H120.985ZM120.103 12.486C120.365 12.486 120.593 12.556 120.789 12.696C120.985 12.8267 121.083 13.0647 121.083 13.41C121.083 13.746 120.985 13.9887 120.789 14.138C120.593 14.278 120.365 14.348 120.103 14.348C119.833 14.348 119.599 14.278 119.403 14.138C119.217 13.9887 119.123 13.746 119.123 13.41C119.123 13.0647 119.217 12.8267 119.403 12.696C119.599 12.556 119.833 12.486 120.103 12.486ZM125.467 23.14C124.589 23.14 123.875 22.8133 123.325 22.16C122.783 21.4973 122.513 20.5173 122.513 19.22C122.513 17.9227 122.788 16.9427 123.339 16.28C123.889 15.608 124.613 15.272 125.509 15.272C125.882 15.272 126.209 15.3233 126.489 15.426C126.778 15.5193 127.025 15.65 127.231 15.818C127.436 15.986 127.609 16.1727 127.749 16.378H127.833C127.805 16.2473 127.777 16.0467 127.749 15.776C127.721 15.5053 127.707 15.2533 127.707 15.02V12.36H129.471V23H128.099L127.777 22.006H127.707C127.567 22.2113 127.394 22.4027 127.189 22.58C126.983 22.748 126.741 22.8833 126.461 22.986C126.181 23.0887 125.849 23.14 125.467 23.14ZM125.999 21.712C126.652 21.712 127.114 21.5253 127.385 21.152C127.655 20.7787 127.791 20.214 127.791 19.458V19.234C127.791 18.4127 127.66 17.7873 127.399 17.358C127.147 16.9287 126.671 16.714 125.971 16.714C125.439 16.714 125.028 16.938 124.739 17.386C124.449 17.8247 124.305 18.4453 124.305 19.248C124.305 20.0507 124.449 20.662 124.739 21.082C125.028 21.502 125.448 21.712 125.999 21.712ZM134.496 15.272C135.178 15.272 135.761 15.412 136.246 15.692C136.741 15.9627 137.124 16.3547 137.394 16.868C137.665 17.372 137.8 17.988 137.8 18.716V19.612H132.788C132.807 20.3027 132.998 20.8393 133.362 21.222C133.726 21.5953 134.23 21.782 134.874 21.782C135.369 21.782 135.808 21.7353 136.19 21.642C136.582 21.5393 136.984 21.3947 137.394 21.208V22.622C137.021 22.7993 136.634 22.93 136.232 23.014C135.831 23.098 135.35 23.14 134.79 23.14C134.053 23.14 133.395 23 132.816 22.72C132.247 22.4307 131.799 21.9967 131.472 21.418C131.155 20.8393 130.996 20.1207 130.996 19.262C130.996 18.394 131.141 17.666 131.43 17.078C131.729 16.4807 132.14 16.0327 132.662 15.734C133.185 15.426 133.796 15.272 134.496 15.272ZM134.496 16.574C134.03 16.574 133.647 16.728 133.348 17.036C133.059 17.3347 132.886 17.7827 132.83 18.38H136.092C136.092 18.0253 136.032 17.7127 135.91 17.442C135.798 17.1713 135.626 16.9613 135.392 16.812C135.159 16.6533 134.86 16.574 134.496 16.574ZM143.275 15.272C143.387 15.272 143.518 15.2767 143.667 15.286C143.817 15.2953 143.943 15.314 144.045 15.342L143.891 16.98C143.807 16.9613 143.695 16.9473 143.555 16.938C143.425 16.9193 143.308 16.91 143.205 16.91C142.925 16.91 142.655 16.9567 142.393 17.05C142.141 17.134 141.913 17.2647 141.707 17.442C141.511 17.61 141.353 17.8293 141.231 18.1C141.119 18.3707 141.063 18.6927 141.063 19.066V23H139.299V15.412H140.657L140.909 16.728H140.993C141.143 16.4573 141.329 16.2147 141.553 16C141.777 15.776 142.034 15.5987 142.323 15.468C142.622 15.3373 142.939 15.272 143.275 15.272ZM150.338 20.802C150.338 21.306 150.216 21.7353 149.974 22.09C149.731 22.4353 149.372 22.6967 148.896 22.874C148.429 23.0513 147.855 23.14 147.174 23.14C146.642 23.14 146.184 23.1027 145.802 23.028C145.419 22.9533 145.055 22.8367 144.71 22.678V21.18C145.083 21.3573 145.498 21.5067 145.956 21.628C146.413 21.7493 146.838 21.81 147.23 21.81C147.715 21.81 148.065 21.7353 148.28 21.586C148.494 21.4367 148.602 21.236 148.602 20.984C148.602 20.8347 148.56 20.6993 148.476 20.578C148.392 20.4567 148.228 20.3307 147.986 20.2C147.743 20.06 147.374 19.8873 146.88 19.682C146.394 19.486 145.988 19.29 145.662 19.094C145.344 18.898 145.102 18.6647 144.934 18.394C144.775 18.114 144.696 17.764 144.696 17.344C144.696 16.6627 144.966 16.1493 145.508 15.804C146.049 15.4493 146.763 15.272 147.65 15.272C148.116 15.272 148.555 15.3187 148.966 15.412C149.386 15.496 149.806 15.636 150.226 15.832L149.666 17.134C149.432 17.0313 149.199 16.9427 148.966 16.868C148.742 16.784 148.513 16.7187 148.28 16.672C148.056 16.6253 147.827 16.602 147.594 16.602C147.211 16.602 146.922 16.6627 146.726 16.784C146.53 16.896 146.432 17.0547 146.432 17.26C146.432 17.4187 146.478 17.5587 146.572 17.68C146.674 17.792 146.847 17.9087 147.09 18.03C147.342 18.142 147.696 18.2913 148.154 18.478C148.611 18.6553 148.998 18.842 149.316 19.038C149.642 19.2247 149.894 19.458 150.072 19.738C150.249 20.018 150.338 20.3727 150.338 20.802Z" fill="#BA110B"/>
</svg>
