<svg width="34" height="34" viewBox="0 0 34 34" fill="none" xmlns="http://www.w3.org/2000/svg">
<mask id="mask0_103_59" style="mask-type:alpha" maskUnits="userSpaceOnUse" x="0" y="0" width="34" height="34">
<rect width="34" height="34" fill="#D9D9D9"/>
</mask>
<g mask="url(#mask0_103_59)">
<path d="M0 25.5V23.2688C0 22.2535 0.519444 21.4271 1.55833 20.7896C2.59722 20.1521 3.96667 19.8333 5.66667 19.8333C5.97361 19.8333 6.26875 19.8392 6.55208 19.851C6.83542 19.8628 7.10694 19.8924 7.36667 19.9396C7.03611 20.4354 6.78819 20.9549 6.62292 21.4979C6.45764 22.041 6.375 22.6076 6.375 23.1979V25.5H0ZM8.5 25.5V23.1979C8.5 22.4424 8.7066 21.7517 9.11979 21.126C9.53299 20.5003 10.1174 19.9514 10.8729 19.4792C11.6285 19.0069 12.5316 18.6528 13.5823 18.4167C14.633 18.1806 15.7722 18.0625 17 18.0625C18.2514 18.0625 19.4024 18.1806 20.4531 18.4167C21.5038 18.6528 22.4069 19.0069 23.1625 19.4792C23.9181 19.9514 24.4965 20.5003 24.8979 21.126C25.2993 21.7517 25.5 22.4424 25.5 23.1979V25.5H8.5ZM27.625 25.5V23.1979C27.625 22.584 27.5483 22.0056 27.3948 21.4625C27.2413 20.9194 27.0111 20.4118 26.7042 19.9396C26.9639 19.8924 27.2295 19.8628 27.501 19.851C27.7726 19.8392 28.05 19.8333 28.3333 19.8333C30.0333 19.8333 31.4028 20.1462 32.4417 20.7719C33.4806 21.3976 34 22.2299 34 23.2688V25.5H27.625ZM11.5104 22.6667H22.525C22.2889 22.1944 21.6337 21.7812 20.5594 21.4271C19.4851 21.0729 18.2986 20.8958 17 20.8958C15.7014 20.8958 14.5149 21.0729 13.4406 21.4271C12.3663 21.7812 11.7229 22.1944 11.5104 22.6667ZM5.66667 18.4167C4.8875 18.4167 4.22049 18.1392 3.66563 17.5844C3.11076 17.0295 2.83333 16.3625 2.83333 15.5833C2.83333 14.7806 3.11076 14.1076 3.66563 13.5646C4.22049 13.0215 4.8875 12.75 5.66667 12.75C6.46944 12.75 7.14236 13.0215 7.68542 13.5646C8.22847 14.1076 8.5 14.7806 8.5 15.5833C8.5 16.3625 8.22847 17.0295 7.68542 17.5844C7.14236 18.1392 6.46944 18.4167 5.66667 18.4167ZM28.3333 18.4167C27.5542 18.4167 26.8872 18.1392 26.3323 17.5844C25.7774 17.0295 25.5 16.3625 25.5 15.5833C25.5 14.7806 25.7774 14.1076 26.3323 13.5646C26.8872 13.0215 27.5542 12.75 28.3333 12.75C29.1361 12.75 29.809 13.0215 30.3521 13.5646C30.8951 14.1076 31.1667 14.7806 31.1667 15.5833C31.1667 16.3625 30.8951 17.0295 30.3521 17.5844C29.809 18.1392 29.1361 18.4167 28.3333 18.4167ZM17 17C15.8194 17 14.816 16.5868 13.9896 15.7604C13.1632 14.934 12.75 13.9306 12.75 12.75C12.75 11.5458 13.1632 10.5365 13.9896 9.72187C14.816 8.90729 15.8194 8.5 17 8.5C18.2042 8.5 19.2135 8.90729 20.0281 9.72187C20.8427 10.5365 21.25 11.5458 21.25 12.75C21.25 13.9306 20.8427 14.934 20.0281 15.7604C19.2135 16.5868 18.2042 17 17 17ZM17 14.1667C17.4014 14.1667 17.7378 14.0309 18.0094 13.7594C18.2809 13.4878 18.4167 13.1514 18.4167 12.75C18.4167 12.3486 18.2809 12.0122 18.0094 11.7406C17.7378 11.4691 17.4014 11.3333 17 11.3333C16.5986 11.3333 16.2622 11.4691 15.9906 11.7406C15.7191 12.0122 15.5833 12.3486 15.5833 12.75C15.5833 13.1514 15.7191 13.4878 15.9906 13.7594C16.2622 14.0309 16.5986 14.1667 17 14.1667Z" fill="#470A34"/>
</g>
</svg>
