<svg width="108" height="35" viewBox="0 0 108 35" fill="none" xmlns="http://www.w3.org/2000/svg">
<rect x="0.5" width="107" height="35" rx="8" fill="#FBEAE9"/>
<rect x="16.5" y="11.5" width="12" height="12" rx="6" fill="#BA110B"/>
<path d="M43.386 23H41.594V14.516H38.724V13.004H46.256V14.516H43.386V23ZM49.406 15.272C50.0873 15.272 50.6707 15.412 51.156 15.692C51.6507 15.9627 52.0333 16.3547 52.304 16.868C52.5747 17.372 52.71 17.988 52.71 18.716V19.612H47.698C47.7167 20.3027 47.908 20.8393 48.272 21.222C48.636 21.5953 49.14 21.782 49.784 21.782C50.2787 21.782 50.7173 21.7353 51.1 21.642C51.492 21.5393 51.8933 21.3947 52.304 21.208V22.622C51.9307 22.7993 51.5433 22.93 51.142 23.014C50.7407 23.098 50.26 23.14 49.7 23.14C48.9627 23.14 48.3047 23 47.726 22.72C47.1567 22.4307 46.7087 21.9967 46.382 21.418C46.0647 20.8393 45.906 20.1207 45.906 19.262C45.906 18.394 46.0507 17.666 46.34 17.078C46.6387 16.4807 47.0493 16.0327 47.572 15.734C48.0947 15.426 48.706 15.272 49.406 15.272ZM49.406 16.574C48.9393 16.574 48.5567 16.728 48.258 17.036C47.9687 17.3347 47.796 17.7827 47.74 18.38H51.002C51.002 18.0253 50.9413 17.7127 50.82 17.442C50.708 17.1713 50.5353 16.9613 50.302 16.812C50.0687 16.6533 49.77 16.574 49.406 16.574ZM58.2688 15.272C59.1181 15.272 59.7808 15.4913 60.2568 15.93C60.7421 16.3687 60.9848 17.078 60.9848 18.058V23H59.2208V18.408C59.2208 17.8387 59.1088 17.414 58.8848 17.134C58.6608 16.8447 58.3061 16.7 57.8208 16.7C57.1114 16.7 56.6261 16.924 56.3648 17.372C56.1034 17.8107 55.9728 18.45 55.9728 19.29V23H54.2088V15.412H55.5668L55.8188 16.406H55.9168C56.0848 16.1447 56.2901 15.93 56.5328 15.762C56.7754 15.594 57.0461 15.4727 57.3448 15.398C57.6434 15.314 57.9514 15.272 58.2688 15.272ZM65.9352 15.272C66.9152 15.272 67.6572 15.4867 68.1612 15.916C68.6745 16.336 68.9312 16.9987 68.9312 17.904V23H67.6852L67.3352 21.95H67.2792C67.0645 22.2207 66.8405 22.4493 66.6072 22.636C66.3832 22.8133 66.1219 22.9393 65.8232 23.014C65.5339 23.098 65.1792 23.14 64.7592 23.14C64.3112 23.14 63.9052 23.056 63.5412 22.888C63.1865 22.72 62.9065 22.4633 62.7012 22.118C62.4959 21.7633 62.3932 21.32 62.3932 20.788C62.3932 20.004 62.6779 19.416 63.2472 19.024C63.8259 18.6227 64.6985 18.4033 65.8652 18.366L67.1812 18.324V17.946C67.1812 17.4607 67.0645 17.1153 66.8312 16.91C66.5979 16.7047 66.2712 16.602 65.8512 16.602C65.4685 16.602 65.0999 16.658 64.7452 16.77C64.3905 16.882 64.0452 17.0127 63.7092 17.162L63.1492 15.93C63.5225 15.734 63.9472 15.5753 64.4232 15.454C64.9085 15.3327 65.4125 15.272 65.9352 15.272ZM66.2572 19.444C65.4825 19.472 64.9459 19.6073 64.6472 19.85C64.3485 20.0833 64.1992 20.4007 64.1992 20.802C64.1992 21.1567 64.3065 21.4133 64.5212 21.572C64.7359 21.7307 65.0112 21.81 65.3472 21.81C65.8605 21.81 66.2945 21.6653 66.6492 21.376C67.0039 21.0773 67.1812 20.6387 67.1812 20.06V19.416L66.2572 19.444ZM74.9217 15.272C75.771 15.272 76.4337 15.4913 76.9097 15.93C77.395 16.3687 77.6377 17.078 77.6377 18.058V23H75.8737V18.408C75.8737 17.8387 75.7617 17.414 75.5377 17.134C75.3137 16.8447 74.959 16.7 74.4737 16.7C73.7643 16.7 73.279 16.924 73.0177 17.372C72.7563 17.8107 72.6257 18.45 72.6257 19.29V23H70.8617V15.412H72.2197L72.4717 16.406H72.5697C72.7377 16.1447 72.943 15.93 73.1857 15.762C73.4283 15.594 73.699 15.4727 73.9977 15.398C74.2963 15.314 74.6043 15.272 74.9217 15.272ZM82.5041 21.726C82.7281 21.726 82.9427 21.7073 83.1481 21.67C83.3534 21.6233 83.5447 21.572 83.7221 21.516V22.832C83.5354 22.916 83.2927 22.986 82.9941 23.042C82.6954 23.1073 82.3827 23.14 82.0561 23.14C81.6267 23.14 81.2347 23.07 80.8801 22.93C80.5347 22.7807 80.2547 22.5287 80.0401 22.174C79.8347 21.8193 79.7321 21.3247 79.7321 20.69V16.742H78.7101V15.972L79.8301 15.356L80.3901 13.746H81.4961V15.412H83.6521V16.742H81.4961V20.676C81.4961 21.0307 81.5894 21.2967 81.7761 21.474C81.9627 21.642 82.2054 21.726 82.5041 21.726ZM90.1376 20.802C90.1376 21.306 90.0162 21.7353 89.7736 22.09C89.5309 22.4353 89.1716 22.6967 88.6956 22.874C88.2289 23.0513 87.6549 23.14 86.9736 23.14C86.4416 23.14 85.9842 23.1027 85.6016 23.028C85.2189 22.9533 84.8549 22.8367 84.5096 22.678V21.18C84.8829 21.3573 85.2982 21.5067 85.7556 21.628C86.2129 21.7493 86.6376 21.81 87.0296 21.81C87.5149 21.81 87.8649 21.7353 88.0796 21.586C88.2942 21.4367 88.4016 21.236 88.4016 20.984C88.4016 20.8347 88.3596 20.6993 88.2756 20.578C88.1916 20.4567 88.0282 20.3307 87.7856 20.2C87.5429 20.06 87.1742 19.8873 86.6796 19.682C86.1942 19.486 85.7882 19.29 85.4616 19.094C85.1442 18.898 84.9016 18.6647 84.7336 18.394C84.5749 18.114 84.4956 17.764 84.4956 17.344C84.4956 16.6627 84.7662 16.1493 85.3076 15.804C85.8489 15.4493 86.5629 15.272 87.4496 15.272C87.9162 15.272 88.3549 15.3187 88.7656 15.412C89.1856 15.496 89.6056 15.636 90.0256 15.832L89.4656 17.134C89.2322 17.0313 88.9989 16.9427 88.7656 16.868C88.5416 16.784 88.3129 16.7187 88.0796 16.672C87.8556 16.6253 87.6269 16.602 87.3936 16.602C87.0109 16.602 86.7216 16.6627 86.5256 16.784C86.3296 16.896 86.2316 17.0547 86.2316 17.26C86.2316 17.4187 86.2782 17.5587 86.3716 17.68C86.4742 17.792 86.6469 17.9087 86.8896 18.03C87.1416 18.142 87.4962 18.2913 87.9536 18.478C88.4109 18.6553 88.7982 18.842 89.1156 19.038C89.4422 19.2247 89.6942 19.458 89.8716 19.738C90.0489 20.018 90.1376 20.3727 90.1376 20.802Z" fill="#BA110B"/>
</svg>
