<svg width="111" height="111" viewBox="0 0 111 111" fill="none" xmlns="http://www.w3.org/2000/svg">
<path fill-rule="evenodd" clip-rule="evenodd" d="M86.1595 88.0445C90.5964 83.8755 94.131 78.8408 96.5448 73.2515C98.9587 67.6623 100.2 61.6373 100.193 55.5491C100.193 30.8925 80.2071 10.9062 55.5505 10.9062C30.8939 10.9062 10.9077 30.8925 10.9077 55.5491C10.9006 61.6373 12.1424 67.6623 14.5563 73.2515C16.9701 78.8408 20.5047 83.8755 24.9416 88.0445C33.2151 95.86 44.1693 100.207 55.5505 100.192C66.9318 100.207 77.886 95.86 86.1595 88.0445ZM28.7419 82.1608C31.9566 78.139 36.0359 74.8931 40.6771 72.6641C45.3182 70.4351 50.4019 69.2803 55.5505 69.2854C60.6992 69.2803 65.7829 70.4351 70.424 72.6641C75.0651 74.8931 79.1445 78.139 82.3591 82.1608C78.8519 85.7034 74.6762 88.5144 70.0742 90.4306C65.4722 92.3469 60.5356 93.3303 55.5505 93.3238C50.5655 93.3303 45.6288 92.3469 41.0268 90.4306C36.4249 88.5144 32.2491 85.7034 28.7419 82.1608ZM72.7209 41.8128C72.7209 46.3667 70.9119 50.734 67.6918 53.9541C64.4717 57.1742 60.1044 58.9832 55.5505 58.9832C50.9967 58.9832 46.6293 57.1742 43.4093 53.9541C40.1892 50.734 38.3802 46.3667 38.3802 41.8128C38.3802 37.259 40.1892 32.8916 43.4093 29.6716C46.6293 26.4515 50.9967 24.6425 55.5505 24.6425C60.1044 24.6425 64.4717 26.4515 67.6918 29.6716C70.9119 32.8916 72.7209 37.259 72.7209 41.8128Z" fill="#D6D0CC"/>
</svg>
